<?xml version="1.0" encoding="iso-8859-1"?>
<!-- Generator: Adobe Illustrator 17.0.0, SVG Export Plug-In . SVG Version: 6.00 Build 0)  -->
<!DOCTYPE svg PUBLIC "-//W3C//DTD SVG 1.1//EN" "http://www.w3.org/Graphics/SVG/1.1/DTD/svg11.dtd">
<svg version="1.1" id="Layer_1" xmlns="http://www.w3.org/2000/svg" xmlns:xlink="http://www.w3.org/1999/xlink" x="0px" y="0px"
	 width="164.167px" height="58px" viewBox="0 0 164.167 58" style="enable-background:new 0 0 164.167 58;" xml:space="preserve">
<g>
	<path style="fill:#2B2A2A;" d="M23.229,15.673h3.013c0.197,0,0.358-0.162,0.358-0.352c0-0.199-0.161-0.36-0.358-0.36h-3.013
		c-0.191,0-0.355,0.161-0.355,0.36C22.874,15.511,23.038,15.673,23.229,15.673z M24.735,42.076c-0.862,0-1.565,0.705-1.565,1.57
		c0,0.863,0.703,1.566,1.565,1.566c0.866,0,1.567-0.703,1.567-1.566C26.303,42.781,25.602,42.076,24.735,42.076z M17.049,40.733
		h15.376v-22.74H17.049V40.733z M66.348,33.266c-0.729,0-1.387,0.24-1.982,0.724c-0.595,0.49-0.98,1.124-1.164,1.909
		c-0.09,0.367-0.135,0.666-0.135,0.904v2.215c0,0.969,0.291,1.787,0.888,2.453c0.592,0.66,1.364,0.995,2.312,0.995
		c1.11,0,1.983-0.426,2.603-1.286c0.62-0.857,0.928-1.988,0.928-3.397c0-1.292-0.288-2.361-0.873-3.198
		C68.282,33.712,67.426,33.266,66.348,33.266z M120.27,33.082c-1.183,0-2.087,0.525-2.704,1.582
		c-0.535,0.87-0.797,1.932-0.797,3.188c0,1.224,0.262,2.268,0.797,3.14c0.633,1.055,1.527,1.58,2.683,1.58
		c1.124,0,2.013-0.532,2.647-1.613c0.552-0.883,0.826-1.941,0.826-3.158s-0.264-2.267-0.79-3.137
		C122.304,33.607,121.422,33.082,120.27,33.082z M80.967,33.266c-0.732,0-1.387,0.24-1.982,0.724
		c-0.593,0.49-0.982,1.124-1.166,1.909c-0.091,0.367-0.134,0.666-0.134,0.904v2.215c0,0.969,0.292,1.787,0.888,2.453
		c0.592,0.66,1.364,0.995,2.309,0.995c1.119,0,1.984-0.426,2.605-1.286c0.622-0.857,0.934-1.988,0.934-3.397
		c0-1.292-0.294-2.361-0.876-3.198C82.9,33.712,82.042,33.266,80.967,33.266z M50.42,28.507h-0.052
		c-0.186,0.785-0.474,1.941-0.879,3.476l-1.533,4.818h4.953l-1.554-4.818C51.187,31.488,50.874,30.329,50.42,28.507z M142.69,32.938
		c-0.965,0-1.749,0.412-2.354,1.21c-0.492,0.637-0.787,1.404-0.876,2.294h6.158c0.016-0.873-0.172-1.627-0.572-2.269
		C144.533,33.354,143.747,32.938,142.69,32.938z M63.457,19.81c0.041-0.127,0.041-0.254,0.041-0.381v-0.941
		c-1.224-0.014-2.391,0.238-2.391,1.279c0,0.676,0.436,0.986,0.984,0.986C62.795,20.753,63.287,20.302,63.457,19.81z M47.326,15.504
		c-0.184-0.577-0.338-1.224-0.479-1.772h-0.029c-0.14,0.549-0.295,1.209-0.45,1.772l-0.73,2.336h2.434L47.326,15.504z
		 M154.658,1.698H8.987c-3.707,0-6.724,3.016-6.724,6.725v41.862C2.264,53.988,5.28,57,8.987,57h145.671
		c3.708,0,6.725-3.012,6.725-6.715V8.423C161.383,4.714,158.366,1.698,154.658,1.698z M145.42,14.829
		c2.223,0,2.955,1.828,2.955,3.334c0,0.324-0.028,0.578-0.057,0.732h-4.587c0.042,1.237,0.999,1.771,2.11,1.771
		c0.802,0,1.365-0.125,1.899-0.309l0.253,1.182c-0.591,0.253-1.406,0.435-2.392,0.435c-2.223,0-3.531-1.363-3.531-3.46
		C142.071,16.615,143.225,14.829,145.42,14.829z M117.959,14.983l0.084,1.027h0.043c0.309-0.535,1.055-1.182,2.194-1.182
		c1.196,0,2.435,0.774,2.435,2.94v4.066h-1.73v-3.869c0-0.984-0.366-1.731-1.309-1.731c-0.689,0-1.168,0.492-1.352,1.014
		c-0.057,0.141-0.084,0.351-0.084,0.549v4.037h-1.73v-4.81c0-0.789-0.028-1.449-0.057-2.041H117.959z M99.786,14.829
		c2.223,0,2.955,1.828,2.955,3.334c0,0.324-0.028,0.578-0.057,0.732h-4.587c0.042,1.237,0.999,1.771,2.11,1.771
		c0.802,0,1.364-0.125,1.899-0.309l0.253,1.182c-0.591,0.253-1.406,0.435-2.392,0.435c-2.223,0-3.531-1.363-3.531-3.46
		C96.437,16.615,97.591,14.829,99.786,14.829z M92.693,11.847h1.729v9.988h-1.729V11.847z M78.969,16.052
		c-0.676,0-1.379,0.213-1.843,0.508l-0.338-1.126c0.506-0.309,1.393-0.604,2.476-0.604c2.195,0,2.829,1.393,2.829,2.898v2.463
		c0,0.619,0.027,1.224,0.111,1.645h-1.562l-0.126-0.759h-0.042c-0.408,0.534-1.126,0.915-2.026,0.915c-1.38,0-2.153-1-2.153-2.041
		c0-1.717,1.533-2.603,4.066-2.589v-0.112C80.361,16.799,80.178,16.052,78.969,16.052z M68.736,12.127
		c0.591,0,0.957,0.409,0.971,0.942c0,0.507-0.38,0.93-0.985,0.93c-0.577,0-0.956-0.423-0.956-0.93
		C67.766,12.536,68.159,12.127,68.736,12.127z M69.594,14.983v6.852h-1.729v-6.852H69.594z M45.792,12.353h2.209l3.081,9.482h-1.871
		l-0.857-2.688h-2.998l-0.816,2.688h-1.787L45.792,12.353z M34.268,43.798c0,1.671-1.362,3.025-3.032,3.025H18.24
		c-1.672,0-3.034-1.354-3.034-3.025V14.921c0-1.671,1.362-3.029,3.034-3.029h12.995c1.67,0,3.032,1.358,3.032,3.029V43.798z
		 M55.156,44.491l-1.723-5.415h-5.996l-1.644,5.415H42.73l5.935-18.448h3.672l5.97,18.448H55.156z M55.828,21.835h-1.703
		l-2.547-6.852h1.872l1.11,3.476c0.197,0.604,0.338,1.153,0.465,1.717h0.043c0.126-0.563,0.281-1.099,0.464-1.717l1.098-3.476h1.815
		L55.828,21.835z M59.391,19.95c0-1.717,1.533-2.603,4.066-2.589v-0.112c0-0.45-0.184-1.197-1.394-1.197
		c-0.676,0-1.378,0.213-1.843,0.508l-0.338-1.126c0.506-0.309,1.393-0.604,2.477-0.604c2.194,0,2.828,1.393,2.828,2.898v2.463
		c0,0.619,0.027,1.224,0.112,1.645h-1.563l-0.126-0.759h-0.042c-0.408,0.534-1.126,0.915-2.026,0.915
		C60.164,21.991,59.391,20.991,59.391,19.95z M70.965,43.045c-1.099,1.163-2.469,1.747-4.1,1.747c-1.766,0-3.029-0.628-3.798-1.892
		v6.986h-2.954V35.56c0-1.423-0.038-2.878-0.113-4.372h2.601l0.163,2.107h0.052c0.99-1.582,2.484-2.375,4.494-2.375
		c1.569,0,2.875,0.615,3.931,1.859c1.046,1.238,1.572,2.875,1.572,4.898C72.812,39.947,72.198,41.729,70.965,43.045z M74.041,21.835
		h-1.73v-9.988h1.73V21.835z M85.58,43.045c-1.102,1.163-2.466,1.747-4.101,1.747c-1.761,0-3.026-0.628-3.795-1.892v6.986h-2.957
		V35.56c0-1.423-0.038-2.878-0.109-4.372h2.594l0.171,2.107h0.051c0.992-1.582,2.483-2.375,4.49-2.375
		c1.57,0,2.88,0.615,3.929,1.859c1.052,1.238,1.575,2.875,1.575,4.898C87.428,39.947,86.813,41.729,85.58,43.045z M87.61,21.991
		c-0.887,0-1.675-0.338-2.167-1.183h-0.028l-0.084,1.026h-1.478c0.028-0.464,0.057-1.223,0.057-1.928v-8.061h1.729v4.079h0.028
		c0.422-0.661,1.168-1.097,2.195-1.097c1.675,0,2.87,1.393,2.856,3.475C90.72,20.767,89.158,21.991,87.61,21.991z M102.49,43.148
		c-1.208,1.078-2.881,1.613-5.027,1.613c-1.989,0-3.58-0.385-4.781-1.147l0.687-2.463c1.295,0.763,2.717,1.149,4.265,1.149
		c1.118,0,1.982-0.254,2.604-0.752c0.617-0.5,0.928-1.17,0.928-2.02c0-0.738-0.256-1.368-0.764-1.882
		c-0.516-0.511-1.357-0.981-2.545-1.423c-3.227-1.201-4.843-2.963-4.843-5.279c0-1.515,0.563-2.759,1.706-3.726
		c1.141-0.965,2.65-1.449,4.532-1.449c1.678,0,3.074,0.294,4.189,0.874l-0.746,2.409c-1.04-0.563-2.222-0.85-3.54-0.85
		c-1.042,0-1.859,0.265-2.447,0.764c-0.491,0.463-0.738,1.02-0.738,1.675c0,0.725,0.283,1.329,0.848,1.811
		c0.494,0.435,1.389,0.908,2.68,1.418c1.593,0.634,2.757,1.387,3.508,2.247c0.746,0.857,1.122,1.923,1.122,3.198
		C104.126,40.887,103.577,42.168,102.49,43.148z M112.911,33.402h-3.263v6.467c0,1.641,0.579,2.455,1.729,2.455
		c0.529,0,0.963-0.039,1.313-0.129l0.084,2.239c-0.585,0.219-1.35,0.329-2.299,0.329c-1.162,0-2.081-0.351-2.735-1.067
		c-0.663-0.708-0.99-1.905-0.99-3.584v-6.71h-1.941v-2.215h1.941v-2.434l2.898-0.876v3.31h3.263V33.402z M111.244,21.991
		c-1.928,0-3.434-1.324-3.434-3.532c0-2.251,1.478-3.63,3.546-3.63c2.04,0,3.405,1.436,3.405,3.518
		C114.762,20.865,112.988,21.991,111.244,21.991z M125.039,42.771c-1.227,1.347-2.851,2.021-4.871,2.021
		c-1.956,0-3.517-0.646-4.674-1.942c-1.157-1.293-1.734-2.933-1.734-4.9c0-2.061,0.596-3.75,1.791-5.063
		c1.197-1.318,2.803-1.967,4.828-1.967c1.96,0,3.527,0.642,4.714,1.943c1.128,1.252,1.694,2.881,1.694,4.868
		C126.787,39.781,126.207,41.453,125.039,42.771z M128.094,14.983h0.971v-1.281l1.703-0.479v1.76h1.645v1.294h-1.645v3.025
		c0,0.845,0.225,1.267,0.886,1.267c0.31,0,0.479-0.015,0.676-0.07l0.028,1.309c-0.254,0.098-0.718,0.184-1.252,0.184
		c-0.647,0-1.169-0.212-1.492-0.563c-0.38-0.394-0.549-1.027-0.549-1.928v-3.223h-0.971V14.983z M135.682,33.787
		c-0.291-0.053-0.605-0.075-0.931-0.075c-1.04,0-1.841,0.392-2.408,1.175c-0.494,0.695-0.739,1.559-0.739,2.625v6.979h-2.956v-9.119
		c0-1.524-0.026-2.921-0.079-4.185h2.572l0.11,2.547h0.081c0.309-0.873,0.799-1.578,1.478-2.104c0.657-0.479,1.372-0.71,2.138-0.71
		c0.271,0,0.52,0.015,0.734,0.05V33.787z M136.13,17.727v4.108H134.4v-9.988h1.729v4.065h0.028c0.211-0.323,0.507-0.591,0.858-0.773
		c0.352-0.198,0.76-0.31,1.196-0.31c1.168,0,2.393,0.774,2.393,2.969v4.037h-1.731V17.98c0-0.985-0.366-1.745-1.322-1.745
		c-0.676,0-1.154,0.451-1.351,0.971C136.144,17.361,136.13,17.544,136.13,17.727z M148.331,38.557h-8.87
		c0.035,1.313,0.464,2.313,1.288,3.005c0.746,0.622,1.712,0.933,2.899,0.933c1.316,0,2.509-0.209,3.586-0.635l0.466,2.056
		c-1.255,0.552-2.745,0.819-4.465,0.819c-2.058,0-3.678-0.604-4.854-1.816c-1.176-1.213-1.77-2.842-1.77-4.884
		c0-2.011,0.551-3.677,1.643-5.015c1.155-1.422,2.706-2.132,4.655-2.132c1.922,0,3.37,0.71,4.352,2.132
		c0.782,1.135,1.177,2.532,1.177,4.193C148.438,37.738,148.4,38.186,148.331,38.557z M87.23,16.179
		c-0.703,0-1.351,0.508-1.533,1.267c-0.029,0.127-0.058,0.281-0.058,0.45v1.111c0,0.141,0.015,0.282,0.043,0.409
		c0.183,0.702,0.788,1.21,1.533,1.21c1.084,0,1.745-0.859,1.745-2.251C88.961,17.165,88.384,16.179,87.23,16.179z M99.687,16.011
		c-1.069,0-1.519,0.971-1.59,1.674h3.011C101.122,17.052,100.841,16.011,99.687,16.011z M111.314,16.081
		c-1.225,0-1.717,1.195-1.717,2.335c0,1.323,0.661,2.322,1.703,2.322c0.984,0,1.674-0.957,1.674-2.35
		C112.975,17.319,112.496,16.081,111.314,16.081z M78.012,19.767c0,0.676,0.437,0.986,0.984,0.986c0.704,0,1.196-0.451,1.365-0.943
		c0.042-0.127,0.042-0.254,0.042-0.381v-0.941C79.18,18.474,78.012,18.726,78.012,19.767z M145.321,16.011
		c-1.069,0-1.52,0.971-1.59,1.674h3.011C146.757,17.052,146.475,16.011,145.321,16.011z"/>
</g>
<g>
</g>
<g>
</g>
<g>
</g>
<g>
</g>
<g>
</g>
<g>
</g>
</svg>
