<?xml version="1.0" encoding="iso-8859-1"?>
<!-- Generator: Adobe Illustrator 17.0.0, SVG Export Plug-In . SVG Version: 6.00 Build 0)  -->
<!DOCTYPE svg PUBLIC "-//W3C//DTD SVG 1.1//EN" "http://www.w3.org/Graphics/SVG/1.1/DTD/svg11.dtd">
<svg version="1.1" id="Layer_1" xmlns="http://www.w3.org/2000/svg" xmlns:xlink="http://www.w3.org/1999/xlink" x="0px" y="0px"
	 width="100px" height="100px" viewBox="0 0 100 100" style="enable-background:new 0 0 100 100;" xml:space="preserve">
<g>
	<path style="fill:#D7DAE3;" d="M20.292,70.391v10.798c0,0.657,0.534,1.204,1.205,1.204h8.347c0.657,0,1.205-0.533,1.205-1.204
		V62.194l-6.063,6.062C23.7,69.529,22.058,70.268,20.292,70.391L20.292,70.391z M20.292,70.391"/>
	<path style="fill:#D7DAE3;" d="M35.21,62.057v19.132c0,0.657,0.533,1.204,1.204,1.204h8.348c0.657,0,1.204-0.533,1.204-1.204
		V69.926c-1.902-0.041-3.681-0.794-5.022-2.135L35.21,62.057z M35.21,62.057"/>
	<path style="fill:#D7DAE3;" d="M50.127,68.735v12.454c0,0.657,0.534,1.204,1.204,1.204h8.348c0.657,0,1.204-0.533,1.204-1.204
		V58.211l-9.566,9.566C50.948,68.147,50.551,68.462,50.127,68.735L50.127,68.735z M50.127,68.735"/>
	<g>
		<path style="fill:#D7DAE3;" d="M74.993,44.088l-9.949,9.949v27.151c0,0.657,0.534,1.204,1.204,1.204h8.348
			c0.657,0,1.204-0.533,1.204-1.204V44.84c-0.273-0.232-0.479-0.438-0.63-0.575L74.993,44.088z M74.993,44.088"/>
		<path style="fill:#D7DAE3;" d="M81.821,26.462c-0.396-0.424-0.999-0.644-1.765-0.644h-0.219c-3.886,0.178-7.759,0.37-11.646,0.547
			c-0.52,0.027-1.232,0.055-1.792,0.616c-0.178,0.178-0.315,0.383-0.424,0.629c-0.575,1.246,0.233,2.053,0.615,2.436l0.972,0.986
			c0.671,0.684,1.355,1.369,2.039,2.039L46.117,56.569L35.565,46.017c-0.63-0.63-1.478-0.985-2.381-0.985
			c-0.904,0-1.738,0.355-2.368,0.985L16.762,60.059c-1.314,1.314-1.314,3.435,0,4.749l0.629,0.63
			c0.63,0.629,1.477,0.985,2.381,0.985c0.904,0,1.738-0.355,2.368-0.985l11.045-11.045l10.551,10.551
			c0.63,0.629,1.477,0.986,2.381,0.986c0.904,0,1.738-0.356,2.382-0.986L74.993,38.45l2.997,2.984
			c0.356,0.355,0.849,0.848,1.601,0.848c0.315,0,0.63-0.081,0.958-0.26c0.219-0.123,0.41-0.26,0.575-0.424
			c0.589-0.588,0.698-1.341,0.725-1.929c0.11-2.519,0.233-5.036,0.356-7.568l0.178-3.791C82.424,27.515,82.246,26.899,81.821,26.462
			L81.821,26.462z M81.821,26.462"/>
	</g>
</g>
<g>
</g>
<g>
</g>
<g>
</g>
<g>
</g>
<g>
</g>
<g>
</g>
</svg>
