<?xml version="1.0" encoding="iso-8859-1"?>
<!-- Generator: Adobe Illustrator 17.0.0, SVG Export Plug-In . SVG Version: 6.00 Build 0)  -->
<!DOCTYPE svg PUBLIC "-//W3C//DTD SVG 1.1//EN" "http://www.w3.org/Graphics/SVG/1.1/DTD/svg11.dtd">
<svg version="1.1" id="Layer_1" xmlns="http://www.w3.org/2000/svg" xmlns:xlink="http://www.w3.org/1999/xlink" x="0px" y="0px"
	 width="100px" height="100px" viewBox="0 0 100 100" style="enable-background:new 0 0 100 100;" xml:space="preserve">
<g>
	<g>
		<path style="fill:#D7DAE3;" d="M82.517,44.591h5.222l0.167-0.167c0-1.607-0.134-3.247-0.368-4.854L82.517,44.591z"/>
		<path style="fill:#D7DAE3;" d="M70.533,14.932l-16.57,16.57v5.222l19.75-19.75C72.676,16.204,71.604,15.535,70.533,14.932z"/>
		<path style="fill:#D7DAE3;" d="M63.169,11.886l-9.206,9.206v5.222l13.055-13.055C65.78,12.689,64.474,12.254,63.169,11.886z"/>
		<path style="fill:#D7DAE3;" d="M58.884,10.982c-1.607-0.234-3.214-0.368-4.854-0.368l-0.067,0.067v5.222L58.884,10.982z"/>
		<path style="fill:#D7DAE3;" d="M66.918,44.591l16.637-16.637c-0.603-1.071-1.272-2.142-2.042-3.18L61.696,44.591H66.918z"/>
		<path style="fill:#D7DAE3;" d="M79.203,21.861c-0.402-0.435-0.803-0.87-1.239-1.306c-0.435-0.435-0.904-0.87-1.372-1.306
			L53.963,41.913v2.645h2.544L79.203,21.861z"/>
		<path style="fill:#D7DAE3;" d="M77.329,44.591l9.306-9.306c-0.368-1.306-0.837-2.578-1.339-3.85L72.14,44.591H77.329z"/>
		<path style="fill:#D7DAE3;" d="M48.038,16.472c-18.813,0-34.077,15.264-34.077,34.077s15.264,34.077,34.077,34.077
			s34.077-15.264,34.077-34.077H48.038V16.472z"/>
	</g>
</g>
<g>
</g>
<g>
</g>
<g>
</g>
<g>
</g>
<g>
</g>
<g>
</g>
</svg>
