<?xml version="1.0" encoding="iso-8859-1"?>
<!-- Generator: Adobe Illustrator 17.0.0, SVG Export Plug-In . SVG Version: 6.00 Build 0)  -->
<!DOCTYPE svg PUBLIC "-//W3C//DTD SVG 1.1//EN" "http://www.w3.org/Graphics/SVG/1.1/DTD/svg11.dtd">
<svg version="1.1" id="Layer_1" xmlns="http://www.w3.org/2000/svg" xmlns:xlink="http://www.w3.org/1999/xlink" x="0px" y="0px"
	 width="146.333px" height="176.667px" viewBox="0 0 146.333 176.667" style="enable-background:new 0 0 146.333 176.667;"
	 xml:space="preserve">
<path style="fill:#FFFFFF;" d="M65.167,9.667"/>
<g>
	<path style="fill:none;stroke:#000000;stroke-width:4;stroke-miterlimit:10;" d="M133,161.333c0,1.65-1.35,3-3,3H13
		c-1.65,0-3-1.35-3-3V66.333c0-1.65,0.987-3.921,2.193-5.048l23.365-21.821c1.206-1.126,3.141-3.008,4.301-4.182l23.2-23.482
		c1.16-1.174,3.458-2.134,5.108-2.134H130c1.65,0,3,1.35,3,3V161.333z"/>
</g>
<g>
	<path style="fill:none;stroke:#000000;stroke-width:4;stroke-miterlimit:10;" d="M65.833,9.667V60c0,1.65-1.35,3-3,3H10.356"/>
</g>
<path style="fill:#010101;" d="M102.331,115.3c-0.387,0.239-1.491,0.387-2.191,0.387c-2.283,0-5.081-1.049-9.039-2.743
	c1.528-0.11,2.909-0.166,4.16-0.166c2.283,0,2.945,0,5.191,0.571C102.681,113.901,102.699,115.061,102.331,115.3z M62.734,115.65
	c0.884-1.546,1.786-3.185,2.706-4.934c2.246-4.252,3.682-7.603,4.731-10.346c2.117,3.847,4.749,7.106,7.824,9.72
	c0.387,0.331,0.792,0.644,1.233,0.976C72.951,112.318,67.52,113.827,62.734,115.65z M70.061,75.353c1.252,0,1.97,3.141,2.025,6.104
	c0.055,2.945-0.626,5.007-1.491,6.553c-0.718-2.283-1.049-5.854-1.049-8.192C69.545,79.819,69.49,75.353,70.061,75.353z
	 M45.504,131.905c0.718-1.933,3.516-5.762,7.658-9.168c0.258-0.202,0.902-0.81,1.491-1.362
	C50.327,128.296,47.418,131.039,45.504,131.905z M103.528,111.232c-1.252-1.233-4.05-1.878-8.284-1.933
	c-2.872-0.037-6.314,0.221-9.959,0.718c-1.62-0.939-3.295-1.951-4.621-3.185c-3.534-3.314-6.48-7.897-8.321-12.941
	c0.11-0.479,0.221-0.884,0.313-1.307c0,0,1.988-11.321,1.454-15.15c-0.074-0.534-0.11-0.681-0.258-1.086l-0.166-0.46
	c-0.534-1.244-1.602-2.57-3.277-2.498l-0.976-0.031h-0.018c-1.859,0-3.387,0.952-3.774,2.364
	c-1.215,4.473,0.037,11.137,2.301,19.771l-0.589,1.417c-1.62,3.939-3.645,7.916-5.431,11.413l-0.239,0.46
	c-1.878,3.682-3.59,6.811-5.136,9.462l-1.602,0.847c-0.11,0.074-2.853,1.51-3.498,1.896c-5.449,3.258-9.072,6.958-9.672,9.904
	c-0.191,0.92-0.048,2.117,0.922,2.688l1.546,0.773c0.668,0.331,1.386,0.497,2.104,0.497c3.884,0,8.394-4.823,14.598-15.666
	c7.179-2.338,15.353-4.289,22.514-5.357c5.449,3.074,12.15,5.21,16.384,5.21c0.755,0,1.399-0.074,1.933-0.221
	c0.81-0.202,1.491-0.663,1.915-1.307c0.81-1.233,0.994-2.927,0.755-4.676C104.393,112.318,103.97,111.673,103.528,111.232z"/>
<g>
</g>
<g>
</g>
<g>
</g>
<g>
</g>
<g>
</g>
<g>
</g>
</svg>
