<?xml version="1.0" encoding="iso-8859-1"?>
<!-- Generator: Adobe Illustrator 17.0.0, SVG Export Plug-In . SVG Version: 6.00 Build 0)  -->
<!DOCTYPE svg PUBLIC "-//W3C//DTD SVG 1.1//EN" "http://www.w3.org/Graphics/SVG/1.1/DTD/svg11.dtd">
<svg version="1.1" id="Layer_1" xmlns="http://www.w3.org/2000/svg" xmlns:xlink="http://www.w3.org/1999/xlink" x="0px" y="0px"
	 width="146.333px" height="176.667px" viewBox="0 0 146.333 176.667" style="enable-background:new 0 0 146.333 176.667;"
	 xml:space="preserve">
<path style="fill:#FFFFFF;" d="M59.167,3.667"/>
<g>
	<path style="fill:none;stroke:#000000;stroke-width:4;stroke-miterlimit:10;" d="M127,155.333c0,1.65-1.35,3-3,3H7
		c-1.65,0-3-1.35-3-3V60.333c0-1.65,0.987-3.921,2.193-5.048l23.365-21.821c1.206-1.126,3.141-3.008,4.301-4.182l23.2-23.482
		c1.16-1.174,3.458-2.134,5.108-2.134H124c1.65,0,3,1.35,3,3V155.333z"/>
</g>
<g>
	<path style="fill:none;stroke:#000000;stroke-width:4;stroke-miterlimit:10;" d="M142.5,14.083v155.25c0,1.65-1.35,3-3,3H13.083"/>
</g>
<g>
	<path style="fill:none;stroke:#000000;stroke-width:4;stroke-miterlimit:10;" d="M59.833,3.667V54c0,1.65-1.35,3-3,3H4.356"/>
</g>
<g>
	<path id="path3673" inkscape:connector-curvature="0" style="fill:#010101;" d="M82.292,106.77
		c-1.31-1.793-2.715-3.251-2.715-6.588V89.108c0-4.694,0.34-9.003-3.156-12.232c-2.752-2.619-7.324-3.543-10.821-3.543
		c-6.838,0-14.467,2.524-16.067,10.886c-0.169,0.888,0.483,1.353,1.074,1.484l6.963,0.746c0.652-0.033,1.123-0.667,1.249-1.306
		c0.597-2.882,3.036-4.266,5.776-4.266c1.478,0,3.156,0.535,4.031,1.846c1.007,1.46,0.872,3.467,0.872,5.153v0.928
		c-4.165,0.461-9.613,0.767-13.514,2.458c-4.499,1.928-7.658,5.851-7.658,11.617c0,7.39,4.701,11.084,10.754,11.084
		c5.108,0,7.904-1.193,11.844-5.167c1.307,1.874,1.735,2.778,4.119,4.74c0.535,0.282,1.224,0.255,1.698-0.169l0.002-0.002
		l0.016,0.018c1.435-1.263,4.04-3.502,5.509-4.72C82.855,108.185,82.751,107.415,82.292,106.77z M68.155,103.576
		c-1.141,2.005-2.957,3.232-4.976,3.232c-2.752,0-4.368-2.08-4.368-5.156c0-6.056,5.493-7.155,10.687-7.155v1.534h0.001
		C69.499,98.802,69.566,101.109,68.155,103.576z"/>
	<g id="g3717" transform="matrix(4.0940394,0,0,4.0940394,105.99043,-56.114346)">
		<path id="path3719" inkscape:connector-curvature="0" style="fill:#010101;" d="M-3.691,42.737
			c-1.68,1.24-4.116,1.899-6.215,1.899c-2.94,0-5.588-1.087-7.591-2.896c-0.157-0.142-0.017-0.336,0.172-0.226
			c2.162,1.258,4.835,2.015,7.596,2.015c1.863,0,3.91-0.386,5.794-1.186C-3.651,42.225-3.413,42.532-3.691,42.737L-3.691,42.737z"/>
		<path id="path3721" inkscape:connector-curvature="0" style="fill:#010101;" d="M-2.992,41.939
			c-0.215-0.275-1.421-0.13-1.962-0.065c-0.165,0.019-0.19-0.124-0.042-0.228c0.962-0.676,2.538-0.48,2.721-0.254
			c0.185,0.229-0.048,1.809-0.95,2.563c-0.139,0.116-0.27,0.055-0.209-0.098C-3.23,43.348-2.776,42.214-2.992,41.939z"/>
	</g>
</g>
<g>
</g>
<g>
</g>
<g>
</g>
<g>
</g>
<g>
</g>
<g>
</g>
</svg>
