<?xml version="1.0" encoding="iso-8859-1"?>
<!-- Generator: Adobe Illustrator 17.0.0, SVG Export Plug-In . SVG Version: 6.00 Build 0)  -->
<!DOCTYPE svg PUBLIC "-//W3C//DTD SVG 1.1//EN" "http://www.w3.org/Graphics/SVG/1.1/DTD/svg11.dtd">
<svg version="1.1" id="Layer_1" xmlns="http://www.w3.org/2000/svg" xmlns:xlink="http://www.w3.org/1999/xlink" x="0px" y="0px"
	 width="146.333px" height="176.667px" viewBox="0 0 146.333 176.667" style="enable-background:new 0 0 146.333 176.667;"
	 xml:space="preserve">
<path style="fill:#FFFFFF;" d="M59.167,3.667"/>
<g>
	<path style="fill:none;stroke:#000000;stroke-width:4;stroke-miterlimit:10;" d="M127,155.333c0,1.65-1.35,3-3,3H7
		c-1.65,0-3-1.35-3-3V60.333c0-1.65,0.987-3.921,2.193-5.048l23.365-21.821c1.206-1.126,3.141-3.008,4.301-4.182l23.2-23.482
		c1.16-1.174,3.458-2.134,5.108-2.134H124c1.65,0,3,1.35,3,3V155.333z"/>
</g>
<g>
	<path style="fill:none;stroke:#000000;stroke-width:4;stroke-miterlimit:10;" d="M142.5,14.083v155.25c0,1.65-1.35,3-3,3H13.083"/>
</g>
<g>
	<path style="fill:none;stroke:#000000;stroke-width:4;stroke-miterlimit:10;" d="M59.833,3.667V54c0,1.65-1.35,3-3,3H4.356"/>
</g>
<path style="fill:#010101;" d="M69.634,93.419c0,1.358-1.101,2.459-2.459,2.459h-0.683c-1.358,0-2.459-1.101-2.459-2.459V79.895
	c0-1.358,1.101-2.459,2.459-2.459h0.683c1.358,0,2.459,1.101,2.459,2.459V93.419z"/>
<path style="fill:#010101;" d="M59.698,95.106c0.973,0.948,0.993,2.504,0.046,3.477l-0.477,0.489
	c-0.948,0.973-2.504,0.993-3.477,0.046l-9.688-9.436c-0.973-0.948-0.993-2.504-0.046-3.477l0.477-0.489
	c0.948-0.973,2.504-0.993,3.477-0.046L59.698,95.106z"/>
<path style="fill:#010101;" d="M55.722,102.921c1.358,0,2.459,1.101,2.459,2.459v0.683c0,1.358-1.101,2.459-2.459,2.459H42.198
	c-1.358,0-2.459-1.101-2.459-2.459v-0.683c0-1.358,1.101-2.459,2.459-2.459H55.722z"/>
<path style="fill:#010101;" d="M56.589,112.858c0.948-0.973,2.504-0.993,3.477-0.046l0.489,0.477
	c0.973,0.948,0.993,2.504,0.046,3.477l-9.436,9.688c-0.948,0.973-2.504,0.993-3.477,0.046l-0.489-0.477
	c-0.973-0.948-0.993-2.504-0.046-3.477L56.589,112.858z"/>
<path style="fill:#010101;" d="M64.853,117.498c0-1.358,1.101-2.459,2.459-2.459h0.683c1.358,0,2.459,1.101,2.459,2.459v13.524
	c0,1.358-1.101,2.459-2.459,2.459h-0.683c-1.358,0-2.459-1.101-2.459-2.459V117.498z"/>
<path style="fill:#010101;" d="M75.609,117.45c-0.973-0.948-0.993-2.504-0.046-3.477l0.477-0.489
	c0.948-0.973,2.504-0.993,3.477-0.046l9.688,9.436c0.973,0.948,0.993,2.504,0.046,3.477l-0.477,0.489
	c-0.948,0.973-2.504,0.993-3.477,0.046L75.609,117.45z"/>
<path style="fill:#010101;" d="M78.766,107.995c-1.358,0-2.459-1.101-2.459-2.459v-0.683c0-1.358,1.101-2.459,2.459-2.459H92.29
	c1.358,0,2.459,1.101,2.459,2.459v0.683c0,1.358-1.101,2.459-2.459,2.459H78.766z"/>
<path style="fill:#010101;" d="M77.079,98.879c-0.948,0.973-2.504,0.993-3.477,0.046l-0.489-0.477
	c-0.973-0.948-0.993-2.504-0.046-3.477l9.436-9.688c0.948-0.973,2.504-0.993,3.477-0.046l0.489,0.477
	c0.973,0.948,0.993,2.504,0.046,3.477L77.079,98.879z"/>
<g>
</g>
<g>
</g>
<g>
</g>
<g>
</g>
<g>
</g>
<g>
</g>
</svg>
