<?xml version="1.0" encoding="iso-8859-1"?>
<!-- Generator: Adobe Illustrator 17.0.0, SVG Export Plug-In . SVG Version: 6.00 Build 0)  -->
<!DOCTYPE svg PUBLIC "-//W3C//DTD SVG 1.1//EN" "http://www.w3.org/Graphics/SVG/1.1/DTD/svg11.dtd">
<svg version="1.1" id="Layer_1" xmlns="http://www.w3.org/2000/svg" xmlns:xlink="http://www.w3.org/1999/xlink" x="0px" y="0px"
	 width="146.333px" height="176.667px" viewBox="0 0 146.333 176.667" style="enable-background:new 0 0 146.333 176.667;"
	 xml:space="preserve">
<path style="fill:#FFFFFF;" d="M59.167,3.667"/>
<g>
	<path style="fill:none;stroke:#000000;stroke-width:4;stroke-miterlimit:10;" d="M127,155.333c0,1.65-1.35,3-3,3H7
		c-1.65,0-3-1.35-3-3V60.333c0-1.65,0.987-3.921,2.193-5.048l23.365-21.821c1.206-1.126,3.141-3.008,4.301-4.182l23.2-23.482
		c1.16-1.174,3.458-2.134,5.108-2.134H124c1.65,0,3,1.35,3,3V155.333z"/>
</g>
<g>
	<path style="fill:none;stroke:#000000;stroke-width:4;stroke-miterlimit:10;" d="M142.5,14.083v155.25c0,1.65-1.35,3-3,3H13.083"/>
</g>
<g>
	<path style="fill:none;stroke:#000000;stroke-width:4;stroke-miterlimit:10;" d="M59.833,3.667V54c0,1.65-1.35,3-3,3H4.356"/>
</g>
<g>
	<g>
		<defs>
			<rect id="SVGID_1_" x="41.761" y="75.948" width="47.419" height="48.121"/>
		</defs>
		<clipPath id="SVGID_2_">
			<use xlink:href="#SVGID_1_"  style="overflow:visible;"/>
		</clipPath>
		<path style="clip-path:url(#SVGID_2_);" d="M86.992,75.929H72.646c-1.21,0-2.191,0.981-2.191,2.191
			c0,1.21,0.982,2.191,2.191,2.191h12.155v32.092c0,3.822-3.109,6.932-6.931,6.932H53.074c-3.822,0-6.931-3.11-6.931-6.932V80.312
			h12.155c1.211,0,2.191-0.982,2.191-2.191c0-1.21-0.98-2.191-2.191-2.191H43.952c-1.21,0-2.191,0.981-2.191,2.191v34.283
			c0,6.239,5.076,11.314,11.313,11.314H77.87c6.239,0,11.313-5.076,11.313-11.314V78.12C89.183,76.91,88.203,75.929,86.992,75.929
			L86.992,75.929z M86.992,75.929"/>
	</g>
</g>
<g>
</g>
<g>
</g>
<g>
</g>
<g>
</g>
<g>
</g>
<g>
</g>
</svg>
