<?xml version="1.0" encoding="iso-8859-1"?>
<!-- Generator: Adobe Illustrator 17.0.0, SVG Export Plug-In . SVG Version: 6.00 Build 0)  -->
<!DOCTYPE svg PUBLIC "-//W3C//DTD SVG 1.1//EN" "http://www.w3.org/Graphics/SVG/1.1/DTD/svg11.dtd">
<svg version="1.1" id="Layer_1" xmlns="http://www.w3.org/2000/svg" xmlns:xlink="http://www.w3.org/1999/xlink" x="0px" y="0px"
	 width="172.167px" height="58px" viewBox="0 0 172.167 58" style="enable-background:new 0 0 172.167 58;" xml:space="preserve">
<g>
	<path style="fill:#2B2A2A;" d="M74.868,13.298c-0.345,0-0.638,0.155-0.88,0.465c-0.241,0.31-0.362,0.701-0.362,1.174
		c0,0.492,0.127,0.892,0.381,1.201c0.254,0.309,0.566,0.463,0.935,0.463c0.345,0,0.638-0.155,0.88-0.466
		c0.241-0.311,0.362-0.702,0.362-1.172c0-0.494-0.127-0.895-0.38-1.203C75.552,13.452,75.24,13.298,74.868,13.298z"/>
	<path style="fill:#2B2A2A;" d="M81.732,13.323c-0.102,0-0.241,0.011-0.419,0.032c0.024,0.473,0.035,0.967,0.035,1.483
		c0,0.565,0.012,1.126,0.036,1.681c0.154,0.031,0.307,0.046,0.461,0.046c0.508,0,0.885-0.158,1.13-0.474
		c0.245-0.316,0.367-0.701,0.367-1.155c0-0.454-0.133-0.837-0.397-1.148C82.681,13.478,82.276,13.323,81.732,13.323z"/>
	<path style="fill:#2B2A2A;" d="M93.348,13.28c-0.168,0-0.345,0.018-0.532,0.053c0.026,0.447,0.039,0.953,0.039,1.518
		c0.059,0.005,0.128,0.007,0.206,0.007c0.863,0,1.295-0.273,1.295-0.819C94.355,13.533,94.02,13.28,93.348,13.28z"/>
	<path style="fill:#2B2A2A;" d="M88.83,13.27c0,0.092-0.209,0.752-0.628,1.979h1.291c-0.404-1.22-0.607-1.88-0.607-1.979H88.83z"/>
	<path style="fill:#2B2A2A;" d="M55.319,13.27c0,0.092-0.209,0.752-0.628,1.979h1.291c-0.404-1.22-0.607-1.88-0.607-1.979H55.319z"
		/>
	<path style="fill:#2B2A2A;" d="M69.84,13.284c-0.222,0-0.419,0.017-0.589,0.05c0.026,0.367,0.039,0.844,0.039,1.433
		c0.13,0.005,0.24,0.007,0.33,0.007c0.752,0,1.128-0.261,1.128-0.784C70.748,13.519,70.445,13.284,69.84,13.284z"/>
	<path style="fill:#2B2A2A;" d="M64.759,13.323c-0.102,0-0.241,0.011-0.419,0.032c0.023,0.473,0.035,0.967,0.035,1.483
		c0,0.565,0.012,1.126,0.035,1.681c0.154,0.031,0.307,0.046,0.461,0.046c0.508,0,0.885-0.158,1.13-0.474
		c0.245-0.316,0.367-0.701,0.367-1.155c0-0.454-0.132-0.837-0.397-1.148C65.707,13.478,65.302,13.323,64.759,13.323z"/>
	<path style="fill:#2B2A2A;" d="M104.186,13.298c-0.345,0-0.639,0.155-0.88,0.465c-0.241,0.31-0.362,0.701-0.362,1.174
		c0,0.492,0.127,0.892,0.382,1.201c0.254,0.309,0.566,0.463,0.935,0.463c0.345,0,0.638-0.155,0.88-0.466
		c0.241-0.311,0.362-0.702,0.362-1.172c0-0.494-0.126-0.895-0.38-1.203C104.87,13.452,104.558,13.298,104.186,13.298z"/>
	<path style="fill:#2B2A2A;" d="M97.603,13.28c-0.168,0-0.345,0.018-0.532,0.053c0.026,0.447,0.039,0.953,0.039,1.518
		c0.059,0.005,0.128,0.007,0.206,0.007c0.863,0,1.295-0.273,1.295-0.819C98.61,13.533,98.274,13.28,97.603,13.28z"/>
	<path style="fill:#2B2A2A;" d="M88.353,29.92c-0.994,0-1.853,0.37-2.579,1.111c-0.727,0.742-1.089,1.724-1.089,2.946
		c0,1.223,0.362,2.204,1.089,2.945c0.726,0.741,1.585,1.112,2.579,1.112c0.993,0,1.853-0.371,2.579-1.112
		c0.726-0.741,1.089-1.723,1.089-2.945c0-1.223-0.363-2.204-1.089-2.946C90.206,30.29,89.347,29.92,88.353,29.92z"/>
	<path style="fill:#2B2A2A;" d="M76.089,29.92c-0.994,0-1.854,0.37-2.579,1.111c-0.727,0.742-1.089,1.724-1.089,2.946
		c0,1.223,0.362,2.204,1.089,2.945c0.726,0.741,1.585,1.112,2.579,1.112c0.993,0,1.853-0.371,2.579-1.112
		c0.726-0.741,1.089-1.723,1.089-2.945c0-1.223-0.363-2.204-1.089-2.946C77.941,30.29,77.082,29.92,76.089,29.92z"/>
	<path style="fill:#2B2A2A;" d="M134.293,25.197h-3.53v5.731h3.53c0.886,0,1.597-0.299,2.132-0.894
		c0.535-0.596,0.803-1.253,0.803-1.972c0-0.718-0.267-1.375-0.803-1.971C135.89,25.495,135.179,25.197,134.293,25.197z"/>
	<path style="fill:#2B2A2A;" d="M147.084,34.688c-0.52,0.444-0.779,0.963-0.779,1.56c0,0.55,0.236,0.985,0.711,1.307
		c0.473,0.32,1.016,0.481,1.627,0.481c0.871,0,1.662-0.325,2.373-0.975c0.711-0.649,1.066-1.417,1.066-2.304
		c-0.596-0.489-1.489-0.733-2.682-0.733C148.375,34.023,147.603,34.245,147.084,34.688z"/>
	<path style="fill:#2B2A2A;" d="M116.916,29.92c-0.779,0-1.455,0.244-2.028,0.733c-0.573,0.489-0.967,1.147-1.181,1.972h6.511
		c-0.046-0.643-0.341-1.253-0.883-1.834C118.792,30.21,117.985,29.92,116.916,29.92z"/>
	<path style="fill:#2B2A2A;" d="M100.526,29.92c-0.979,0-1.819,0.37-2.521,1.111c-0.703,0.742-1.055,1.724-1.055,2.946
		c0,1.223,0.352,2.204,1.055,2.945c0.702,0.741,1.543,1.112,2.521,1.112c0.993,0,1.838-0.367,2.533-1.101
		c0.695-0.733,1.043-1.72,1.043-2.957c0-1.238-0.348-2.224-1.043-2.957C102.364,30.286,101.519,29.92,100.526,29.92z"/>
	<path style="fill:#2B2A2A;" d="M163.271,1.542H9.294c-4.123,0-7.467,3.343-7.467,7.467v40.318c0,4.123,3.344,7.467,7.467,7.467
		h153.977c4.123,0,7.465-3.344,7.465-7.467V9.009C170.736,4.886,167.394,1.542,163.271,1.542z M96.155,12.635h0.617
		c0.087,0,0.255-0.004,0.504-0.011c0.248-0.007,0.464-0.011,0.646-0.011c0.449,0,0.829,0.102,1.139,0.305
		c0.31,0.203,0.465,0.512,0.465,0.926c0,0.565-0.21,0.983-0.63,1.252c-0.42,0.27-0.935,0.404-1.545,0.404
		c-0.111,0-0.19-0.002-0.238-0.007c0,0.445,0.013,1.031,0.039,1.76h-0.997c0.031-0.683,0.046-1.489,0.046-2.416
		C96.201,13.986,96.186,13.252,96.155,12.635z M87.463,14.983c0.552-1.421,0.828-2.204,0.828-2.348h1.341
		c0,0.135,0.25,0.906,0.75,2.315c0.5,1.408,0.75,2.176,0.75,2.304h-1.135c0-0.156-0.108-0.598-0.323-1.327h-1.639
		c-0.222,0.717-0.333,1.159-0.333,1.327h-1.068C86.634,17.161,86.911,16.404,87.463,14.983z M80.409,12.635h0.621
		c0.102,0,0.253-0.004,0.454-0.011c0.201-0.007,0.332-0.011,0.394-0.011c0.854,0,1.473,0.213,1.857,0.639
		c0.384,0.426,0.576,0.937,0.576,1.533c0,0.672-0.215,1.258-0.646,1.759c-0.431,0.502-1.034,0.752-1.809,0.752
		c-0.35,0-0.833-0.014-1.447-0.043c0.031-0.714,0.046-1.52,0.046-2.416C80.455,13.977,80.44,13.243,80.409,12.635z M78.166,12.635
		h1.004c-0.031,0.596-0.046,1.33-0.046,2.203c0,0.892,0.015,1.697,0.046,2.416h-1.004c0.031-0.733,0.046-1.538,0.046-2.416
		C78.212,13.974,78.196,13.24,78.166,12.635z M73.315,13.245c0.444-0.478,0.994-0.717,1.649-0.717c0.624,0,1.147,0.219,1.568,0.656
		c0.421,0.438,0.632,0.996,0.632,1.675c0,0.726-0.222,1.328-0.667,1.806c-0.445,0.478-0.994,0.716-1.65,0.716
		c-0.624,0-1.147-0.219-1.568-0.658c-0.421-0.438-0.631-0.996-0.631-1.673C72.648,14.325,72.87,13.722,73.315,13.245z
		 M63.435,12.635h0.621c0.102,0,0.253-0.004,0.454-0.011c0.201-0.007,0.332-0.011,0.394-0.011c0.854,0,1.473,0.213,1.857,0.639
		c0.384,0.426,0.576,0.937,0.576,1.533c0,0.672-0.215,1.258-0.646,1.759c-0.431,0.502-1.034,0.752-1.809,0.752
		c-0.35,0-0.833-0.014-1.447-0.043c0.031-0.714,0.046-1.52,0.046-2.416C63.481,13.977,63.466,13.243,63.435,12.635z M58.389,12.635
		h1.054c0,0.126,0.292,0.626,0.876,1.501c0.622,0.929,0.979,1.56,1.071,1.891h0.053c-0.057-0.527-0.085-1-0.085-1.419
		c0-0.641-0.017-1.298-0.05-1.972h0.887c-0.033,0.587-0.05,1.321-0.05,2.203c0,0.889,0.016,1.695,0.05,2.416H61.32
		c0-0.097-0.325-0.609-0.975-1.536c-0.681-0.977-1.069-1.645-1.164-2.004h-0.057c0.059,0.518,0.089,0.986,0.089,1.405
		c0,0.584,0.016,1.296,0.05,2.136h-0.873c0.035-0.733,0.053-1.538,0.053-2.416C58.443,13.974,58.425,13.24,58.389,12.635z
		 M53.952,14.983c0.552-1.421,0.828-2.204,0.828-2.348h1.341c0,0.135,0.25,0.906,0.75,2.315c0.5,1.408,0.75,2.176,0.75,2.304h-1.135
		c0-0.156-0.108-0.598-0.323-1.327h-1.639c-0.222,0.717-0.333,1.159-0.333,1.327h-1.068C53.123,17.161,53.399,16.404,53.952,14.983z
		 M16.543,13.349c7.18,4.024,14.359,8.049,21.544,12.063c0.33,0.184,0.323,0.288,0.068,0.538c-1.606,1.58-3.199,3.173-4.791,4.767
		c-0.172,0.172-0.276,0.271-0.507,0.036c-5.712-5.826-11.434-11.643-17.153-17.463c-0.048-0.049-0.087-0.106-0.184-0.226
		C15.95,13.061,16.252,13.185,16.543,13.349z M14.333,48.827c-0.6-0.462-0.83-1.08-0.83-1.817c0.001-3.105-0.005-6.21-0.006-9.316
		c-0.001-2.195,0-4.391,0-6.586c0.003,0,0.006,0,0.009,0c0-5.243,0.002-10.486-0.002-15.728c0-0.643,0.125-1.231,0.58-1.717
		c0.177-0.189,0.305-0.239,0.522-0.018c3.528,3.6,7.064,7.191,10.599,10.783c2.289,2.326,4.578,4.653,6.877,6.97
		c0.223,0.225,0.242,0.343,0.006,0.578c-5.622,5.591-11.24,11.186-16.843,16.797C14.902,49.115,14.662,49.079,14.333,48.827z
		 M37.459,37.437c-6.691,3.662-13.375,7.336-20.062,11.006c-0.11,0.061-0.213,0.16-0.27,0.197
		c5.212-5.268,10.427-10.532,15.627-15.812c0.323-0.328,0.473-0.284,0.762,0.017c1.321,1.375,2.661,2.732,4.008,4.082
		C37.761,37.164,37.781,37.261,37.459,37.437z M46.178,32.571c-0.312,0.23-0.657,0.42-0.997,0.608
		c-2.023,1.118-4.051,2.226-6.07,3.352c-0.272,0.152-0.434,0.145-0.66-0.088c-1.437-1.484-2.887-2.956-4.344-4.42
		c-0.212-0.213-0.218-0.33,0-0.544c1.698-1.673,3.387-3.355,5.068-5.045c0.198-0.199,0.34-0.222,0.588-0.082
		c1.998,1.133,4.005,2.249,6.009,3.372c0.62,0.347,1.102,0.797,1.129,1.531C46.878,31.845,46.599,32.259,46.178,32.571z M67.4,37.53
		c-1.544,1.62-3.554,2.431-6.029,2.431c-2.369,0-4.383-0.821-6.04-2.465c-1.659-1.643-2.487-3.68-2.487-6.109
		s0.828-4.466,2.487-6.109c1.657-1.642,3.671-2.464,6.04-2.464c1.177,0,2.3,0.229,3.37,0.688c1.069,0.458,1.926,1.07,2.567,1.834
		l-1.444,1.444c-1.085-1.299-2.583-1.949-4.493-1.949c-1.728,0-3.221,0.607-4.481,1.823c-1.261,1.215-1.892,2.793-1.892,4.733
		c0,1.941,0.631,3.519,1.892,4.734c1.261,1.215,2.754,1.822,4.481,1.822c1.834,0,3.362-0.611,4.585-1.834
		c0.795-0.795,1.253-1.903,1.375-3.324h-5.96v-1.972h7.955c0.076,0.429,0.114,0.841,0.114,1.238
		C69.44,34.344,68.761,36.171,67.4,37.53z M69.294,15.412c0,0.608,0.011,1.222,0.032,1.841H68.34
		c0.031-0.714,0.046-1.52,0.046-2.416c0-0.861-0.016-1.595-0.046-2.203h0.614c0.071,0,0.219-0.004,0.445-0.011
		c0.226-0.007,0.435-0.011,0.626-0.011c1.085,0,1.628,0.371,1.628,1.114c0,0.589-0.31,0.999-0.929,1.231v0.053
		c0.239,0.066,0.448,0.252,0.628,0.559c0.18,0.306,0.422,0.867,0.727,1.683h-1.05c-0.275-0.837-0.485-1.354-0.632-1.55
		c-0.147-0.196-0.383-0.294-0.71-0.294C69.55,15.409,69.419,15.41,69.294,15.412z M80.238,38.253
		c-1.086,1.139-2.469,1.708-4.149,1.708c-1.682,0-3.064-0.569-4.149-1.708c-1.085-1.139-1.628-2.563-1.628-4.275
		c0-1.712,0.543-3.137,1.628-4.275c1.085-1.139,2.468-1.708,4.149-1.708c1.681,0,3.063,0.569,4.149,1.708
		c1.085,1.139,1.627,2.563,1.627,4.275C81.865,35.689,81.323,37.114,80.238,38.253z M92.503,38.253
		c-1.086,1.139-2.469,1.708-4.149,1.708c-1.682,0-3.064-0.569-4.149-1.708c-1.085-1.139-1.628-2.563-1.628-4.275
		c0-1.712,0.543-3.137,1.628-4.275c1.085-1.139,2.468-1.708,4.149-1.708c1.681,0,3.064,0.569,4.149,1.708
		c1.085,1.139,1.627,2.563,1.627,4.275C94.13,35.689,93.588,37.114,92.503,38.253z M93.096,15.501c-0.111,0-0.19-0.002-0.238-0.007
		c0,0.445,0.013,1.031,0.039,1.76H91.9c0.031-0.683,0.046-1.489,0.046-2.416c0-0.851-0.016-1.586-0.046-2.203h0.617
		c0.087,0,0.255-0.004,0.504-0.011c0.248-0.007,0.464-0.011,0.646-0.011c0.449,0,0.829,0.102,1.139,0.305
		c0.31,0.203,0.465,0.512,0.465,0.926c0,0.565-0.21,0.983-0.63,1.252C94.221,15.366,93.706,15.501,93.096,15.501z M106.12,39.021
		c0,1.926-0.559,3.389-1.674,4.391c-1.115,1-2.476,1.501-4.08,1.501c-1.33,0-2.415-0.332-3.256-0.997
		c-0.841-0.665-1.444-1.426-1.811-2.281l1.926-0.802c0.214,0.61,0.607,1.123,1.181,1.535c0.572,0.413,1.225,0.619,1.96,0.619
		c1.161,0,2.074-0.348,2.739-1.043c0.665-0.695,0.997-1.639,0.997-2.831v-1.077h-0.092c-0.367,0.55-0.887,1.009-1.559,1.375
		c-0.673,0.367-1.43,0.551-2.27,0.551c-1.452,0-2.705-0.573-3.76-1.72c-1.055-1.146-1.582-2.567-1.582-4.264
		c0-1.696,0.527-3.118,1.582-4.265c1.055-1.146,2.308-1.719,3.76-1.719c0.84,0,1.597,0.184,2.27,0.55
		c0.672,0.367,1.191,0.825,1.559,1.376h0.092v-1.56h2.018V39.021z M105.815,16.665c-0.445,0.478-0.994,0.716-1.649,0.716
		c-0.624,0-1.147-0.219-1.568-0.658c-0.421-0.438-0.632-0.996-0.632-1.673c0-0.726,0.222-1.328,0.667-1.806
		c0.445-0.478,0.994-0.717,1.65-0.717c0.624,0,1.147,0.219,1.568,0.656c0.421,0.438,0.632,0.996,0.632,1.675
		C106.482,15.585,106.259,16.187,105.815,16.665z M110.223,39.594h-2.108V23.18h2.108V39.594z M111.29,17.253h-0.876
		c0-0.097-0.325-0.609-0.976-1.536c-0.681-0.977-1.069-1.645-1.164-2.004h-0.057c0.059,0.518,0.089,0.986,0.089,1.405
		c0,0.584,0.016,1.296,0.05,2.136h-0.873c0.035-0.733,0.053-1.538,0.053-2.416c0-0.863-0.018-1.597-0.053-2.203h1.054
		c0,0.126,0.292,0.626,0.876,1.501c0.622,0.929,0.979,1.56,1.071,1.891h0.053c-0.057-0.527-0.085-1-0.085-1.419
		c0-0.641-0.016-1.298-0.05-1.972h0.887c-0.033,0.587-0.05,1.321-0.05,2.203C111.24,15.727,111.257,16.532,111.29,17.253z
		 M122.441,34.367h-8.872c0.061,1.131,0.439,2.025,1.135,2.682c0.695,0.657,1.509,0.986,2.441,0.986
		c1.513,0,2.537-0.643,3.072-1.926l1.879,0.779c-0.366,0.871-0.971,1.602-1.811,2.189c-0.841,0.588-1.872,0.883-3.095,0.883
		c-1.696,0-3.076-0.565-4.138-1.697c-1.063-1.13-1.594-2.56-1.594-4.286c0-1.636,0.516-3.041,1.548-4.219
		c1.031-1.176,2.35-1.765,3.954-1.765c1.666,0,2.999,0.543,4,1.628c1.001,1.085,1.502,2.537,1.502,4.355L122.441,34.367z
		 M137.857,31.559c-1.017,0.925-2.22,1.387-3.61,1.387h-3.484v6.648h-2.109V23.18h5.594c1.391,0,2.594,0.463,3.61,1.387
		c1.017,0.926,1.524,2.091,1.524,3.496C139.382,29.469,138.874,30.635,137.857,31.559z M142.866,39.594h-2.108V23.18h2.108V39.594z
		 M154.099,39.594h-2.018v-1.559h-0.091c-0.841,1.283-2.071,1.926-3.691,1.926c-1.192,0-2.189-0.345-2.991-1.032
		c-0.803-0.688-1.204-1.597-1.204-2.728c0-1.223,0.474-2.182,1.422-2.877c0.947-0.695,2.116-1.043,3.507-1.043
		c1.238,0,2.255,0.229,3.049,0.688v-0.321c0-0.825-0.282-1.486-0.848-1.982c-0.565-0.497-1.261-0.745-2.086-0.745
		c-0.611,0-1.166,0.145-1.662,0.436c-0.497,0.29-0.837,0.688-1.021,1.191l-1.926-0.825c0.26-0.672,0.771-1.295,1.536-1.868
		c0.764-0.573,1.773-0.859,3.026-0.859c1.437,0,2.628,0.421,3.576,1.261c0.947,0.841,1.421,2.025,1.421,3.554V39.594z
		 M158.685,44.545h-2.178l2.613-5.662l-4.631-10.522h2.292l3.348,8.07h0.046l3.255-8.07h2.292L158.685,44.545z"/>
</g>
<g>
</g>
<g>
</g>
<g>
</g>
<g>
</g>
<g>
</g>
<g>
</g>
</svg>
