<?xml version="1.0" encoding="utf-8"?>
<!-- Generator: Adobe Illustrator 17.0.0, SVG Export Plug-In . SVG Version: 6.00 Build 0)  -->
<!DOCTYPE svg PUBLIC "-//W3C//DTD SVG 1.1//EN" "http://www.w3.org/Graphics/SVG/1.1/DTD/svg11.dtd">
<svg version="1.1" id="Layer_1" xmlns="http://www.w3.org/2000/svg" xmlns:xlink="http://www.w3.org/1999/xlink" x="0px" y="0px"
	 width="1006.125px" height="195.555px" viewBox="0 0 1006.125 195.555" enable-background="new 0 0 1006.125 195.555"
	 xml:space="preserve">
<path fill="#FFFFFF" stroke="#D7DAE3" stroke-width="4" stroke-miterlimit="10" d="M3.399,0c0,0,0,17.225,0,57.636
	c0,54.655,61.352,132.727,160.511,132.727c66.493,0,345.273-0.147,345.273-0.147s265.597,0.16,332.09,0.16
	c99.159,0,160.511-78.072,160.511-132.727c0-40.411,0-57.636,0-57.636"/>
<path fill="#EFEFEF" d="M560.833,97.366c0,37.693-30.557,68.25-68.25,68.25c-26.096,0-48.771-14.646-60.254-36.167
	c0,0,43.087,5.259,78.587-21.241c25.725-19.203,19.826-67.436,19.826-67.436C548.897,53.037,560.833,73.808,560.833,97.366z"/>
<path fill="none" stroke="#D7DAE3" stroke-width="4" stroke-miterlimit="10" d="M523.902,123.548c0,1.461-1.184,2.645-2.645,2.645
	h-52.363c-1.461,0-2.645-1.184-2.645-2.645V71.185c0-1.461,1.184-2.645,2.645-2.645h52.363c1.461,0,2.645,1.184,2.645,2.645V123.548
	z"/>
</svg>
