<?xml version="1.0" encoding="utf-8"?>
<!-- Generator: Adobe Illustrator 17.0.0, SVG Export Plug-In . SVG Version: 6.00 Build 0)  -->
<!DOCTYPE svg PUBLIC "-//W3C//DTD SVG 1.1//EN" "http://www.w3.org/Graphics/SVG/1.1/DTD/svg11.dtd">
<svg   class="stroke-3 stroke-grey-blue"   version="1.1" id="Layer_1" xmlns="http://www.w3.org/2000/svg" xmlns:xlink="http://www.w3.org/1999/xlink" x="0px" y="0px"
	 width="1021px" height="203.305px" viewBox="-7.375 0 1021 203.305" enable-background="new -7.375 0 1021 203.305"
	 xml:space="preserve">
<path fill="#FFFFFF" stroke="#D7DAE3" stroke-width="4" stroke-miterlimit="10" d="M3.399,0c0,0,0,17.225,0,57.636
	c0,54.655,61.352,132.727,160.511,132.727c66.493,0,345.273-0.147,345.273-0.147s265.597,0.16,332.09,0.16
	c99.159,0,160.511-78.072,160.511-132.727c0-40.411,0-57.636,0-57.636"/>
<path fill="none" stroke="#D7DAE3" stroke-width="4" stroke-miterlimit="10" d="M523.902,123.548c0,1.461-1.184,2.645-2.645,2.645
	h-52.363c-1.461,0-2.645-1.184-2.645-2.645V71.185c0-1.461,1.184-2.645,2.645-2.645h52.363c1.461,0,2.645,1.184,2.645,2.645V123.548
	z"/>
</svg>


<svg   class="stroke-3 stroke-grey-blue"   version="1.1" id="Layer_1" xmlns="http://www.w3.org/2000/svg" xmlns:xlink="http://www.w3.org/1999/xlink" x="0px" y="0px"
	 width="1021px" height="203.305px" viewBox="-7.375 0 1021 203.305" enable-background="new -7.375 0 1021 203.305"
	 xml:space="preserve">
<path   vector-effect="non-scaling-stroke" fill="#FFFFFF" stroke="#D7DAE3" stroke-width="4" stroke-miterlimit="10" d="M3.399,0c0,0,0,17.225,0,57.636
	c0,54.655,61.352,132.727,160.511,132.727c66.493,0,345.273-0.147,345.273-0.147s265.597,0.16,332.09,0.16
	c99.159,0,160.511-78.072,160.511-132.727c0-40.411,0-57.636,0-57.636"/>
<path   vector-effect="non-scaling-stroke" fill="none" stroke="#D7DAE3" stroke-width="4" stroke-miterlimit="10" d="M523.902,123.548c0,1.461-1.184,2.645-2.645,2.645
	h-52.363c-1.461,0-2.645-1.184-2.645-2.645V71.185c0-1.461,1.184-2.645,2.645-2.645h52.363c1.461,0,2.645,1.184,2.645,2.645V123.548
	z"/>
</svg>
