<?xml version="1.0" encoding="iso-8859-1"?>
<!-- Generator: Adobe Illustrator 17.0.0, SVG Export Plug-In . SVG Version: 6.00 Build 0)  -->
<!DOCTYPE svg PUBLIC "-//W3C//DTD SVG 1.1//EN" "http://www.w3.org/Graphics/SVG/1.1/DTD/svg11.dtd">
<svg version="1.1" id="Layer_1" xmlns="http://www.w3.org/2000/svg" xmlns:xlink="http://www.w3.org/1999/xlink" x="0px" y="0px"
	 width="181.25px" height="245.75px" viewBox="0 0 181.25 245.75" style="enable-background:new 0 0 181.25 245.75;"
	 xml:space="preserve">
<path style="fill:#FFFFFF;stroke:#000000;stroke-width:4;stroke-miterlimit:10;" d="M50.104,234.16
	c-26.668-7.914-45.479-21.321-45.479-26.41c0-15.875,14.582-21.247,26.208-25.917c20.333-8.167,27.194-11.619,33.5-15.667
	c4.324-2.775,4.042-6.167,4.042-6.167v-10c0,0-9.042-5-16.208-12S40.5,114.5,40.5,114.5c-5.333,1.292-6.993,0.238-9.281-1.781
	c-1.417-1.25-5.677-10.542-5.344-15.875s6.292-5.344,6.292-5.344l0,0C29,73,26.667,47,45,25.167S96.5,7.333,96.5,7.333"/>
<path style="fill:#FFFFFF;stroke:#000000;stroke-width:4;stroke-miterlimit:10;" d="M84.66,7.333c0,0,33.167-4,51.5,17.833
	S152.16,73,148.993,91.5l0,0c0,0,5.958,0.01,6.292,5.344s-3.927,14.625-5.344,15.875c-2.288,2.019-3.948,3.073-9.281,1.781
	c0,0-1.447,5.307-4.007,11.178"/>
<path style="fill:none;stroke:#000000;stroke-width:4;stroke-miterlimit:10;" d="M150.377,82.005
	c-32.083,0-39.877-28.755-39.877-28.755S83.167,82.833,31.833,82.833"/>
<path style="fill:none;stroke:#000000;stroke-width:4;stroke-miterlimit:10;" d="M62.25,165.5"/>
<path style="fill:none;stroke:#000000;stroke-width:4;stroke-miterlimit:10;" d="M120.496,168.508"/>
<path style="fill:none;stroke:#000000;stroke-width:4;stroke-miterlimit:10;" d="M177,156.501"/>
<path style="fill:none;stroke:#000000;stroke-width:4;stroke-miterlimit:10;" d="M151.477,75"/>
<path style="fill:#FFFFFF;stroke:#000000;stroke-width:4;stroke-miterlimit:10;" d="M115.125,165.5"/>
<path style="fill:#FFFFFF;stroke:#000000;stroke-width:4;stroke-miterlimit:10;" d="M90.198,185.5"/>
<path style="fill:#FFFFFF;stroke:#000000;stroke-width:4;stroke-miterlimit:10;" d="M65.27,165.5"/>
<path style="fill:none;stroke:#000000;stroke-width:4;stroke-miterlimit:10;" d="M68.375,155.667"/>
<line style="fill:none;stroke:#000000;stroke-width:4;stroke-miterlimit:10;" x1="51.464" y1="173.101" x2="51.034" y2="170.827"/>
<path style="fill:none;stroke:#000000;stroke-width:4;stroke-miterlimit:10;" d="M51.104,173.267"/>
<path style="fill:none;stroke:#000000;stroke-width:4;stroke-miterlimit:10;" d="M63.5,209.333"/>
<path style="fill:none;stroke:#000000;stroke-width:4;stroke-miterlimit:10;" d="M90.198,186"/>
<path style="fill:none;stroke:#000000;stroke-width:4;stroke-miterlimit:10;" d="M63,209.333"/>
<path style="fill:none;stroke:#000000;stroke-width:4;stroke-miterlimit:10;" d="M86.833,241"/>
<path style="fill:none;stroke:#000000;stroke-width:4;stroke-miterlimit:10;" d="M91.98,186"/>
<path style="fill:none;stroke:#000000;stroke-width:4;stroke-miterlimit:10;" d="M118.878,208.751"/>
<path style="fill:none;stroke:#000000;stroke-width:4;stroke-miterlimit:10;" d="M93.756,240.199"/>
<path style="fill:none;stroke:#000000;stroke-width:4;stroke-miterlimit:10;" d="M102.625,194.625"/>
<path style="fill:#FFFFFF;stroke:#000000;stroke-width:4;stroke-miterlimit:10;" d="M76.568,227.157"/>
<path style="fill:#FFFFFF;stroke:#000000;stroke-width:4;stroke-miterlimit:10;" d="M86.125,202.688"/>
<path style="fill:#FFFFFF;stroke:#000000;stroke-width:4;stroke-miterlimit:10;" d="M104.232,227.475"/>
<path style="fill:#FFFFFF;stroke:#000000;stroke-width:4;stroke-miterlimit:10;" d="M94.809,202.688"/>
<g>
	<path style="fill:none;stroke:#000000;stroke-width:4;stroke-miterlimit:10;" d="M138.752,237.776c0,1.412-1.145,2.557-2.557,2.557
		H77.66c-1.412,0-2.557-1.145-2.557-2.557v-67.627c0-1.412,1.145-2.557,2.557-2.557h58.535c1.412,0,2.557,1.145,2.557,2.557V237.776
		z"/>
	<path style="fill:none;stroke:#000000;stroke-width:4;stroke-miterlimit:10;" d="M110.337,167.591v-26.425
		c0-1.412,1.145-2.557,2.557-2.557h60.808c1.412,0,2.557,1.145,2.557,2.557c0,0,0,63.72,0,63.72h-15.557
		c-1.412,0-2.557,1.145-2.557,2.557c0,0,0,15.841,0,15.841h-18.683"/>
	<line style="fill:none;stroke:#000000;stroke-width:4;stroke-miterlimit:10;" x1="176.74" y1="205.242" x2="158.558" y2="223.68"/>
	
		<rect x="88.031" y="180.946" style="fill:none;stroke:#000000;stroke-width:4;stroke-miterlimit:10;" width="38.36" height="13.177"/>
	
		<line style="fill:none;stroke:#000000;stroke-width:4;stroke-miterlimit:10;" x1="122.023" y1="152.887" x2="164.006" y2="152.887"/>
	
		<line style="fill:none;stroke:#000000;stroke-width:4;stroke-miterlimit:10;" x1="148.129" y1="166.952" x2="164.006" y2="166.952"/>
	
		<line style="fill:none;stroke:#000000;stroke-width:4;stroke-miterlimit:10;" x1="148.662" y1="180.485" x2="164.538" y2="180.485"/>
	
		<line style="fill:none;stroke:#000000;stroke-width:4;stroke-miterlimit:10;" x1="149.514" y1="194.124" x2="165.391" y2="194.124"/>
	<line style="fill:none;stroke:#000000;stroke-width:4;stroke-miterlimit:10;" x1="88.031" y1="205.242" x2="89.949" y2="205.242"/>
	
		<line style="fill:none;stroke:#000000;stroke-width:4;stroke-miterlimit:10;" x1="99.966" y1="205.242" x2="101.724" y2="205.242"/>
	<line style="fill:none;stroke:#000000;stroke-width:4;stroke-miterlimit:10;" x1="111.5" y1="205.242" x2="113.152" y2="205.242"/>
	
		<line style="fill:none;stroke:#000000;stroke-width:4;stroke-miterlimit:10;" x1="123.15" y1="205.242" x2="124.802" y2="205.242"/>
	<line style="fill:none;stroke:#000000;stroke-width:4;stroke-miterlimit:10;" x1="88.031" y1="217.176" x2="89.949" y2="217.176"/>
	
		<line style="fill:none;stroke:#000000;stroke-width:4;stroke-miterlimit:10;" x1="99.966" y1="217.176" x2="101.724" y2="217.176"/>
	<line style="fill:none;stroke:#000000;stroke-width:4;stroke-miterlimit:10;" x1="111.5" y1="217.176" x2="113.152" y2="217.176"/>
	
		<line style="fill:none;stroke:#000000;stroke-width:4;stroke-miterlimit:10;" x1="123.15" y1="217.176" x2="124.802" y2="217.176"/>
	<line style="fill:none;stroke:#000000;stroke-width:4;stroke-miterlimit:10;" x1="88.031" y1="228.258" x2="89.949" y2="228.258"/>
	
		<line style="fill:none;stroke:#000000;stroke-width:4;stroke-miterlimit:10;" x1="99.966" y1="228.258" x2="101.724" y2="228.258"/>
	<line style="fill:none;stroke:#000000;stroke-width:4;stroke-miterlimit:10;" x1="111.5" y1="228.258" x2="113.152" y2="228.258"/>
	
		<line style="fill:none;stroke:#000000;stroke-width:4;stroke-miterlimit:10;" x1="123.15" y1="228.258" x2="124.802" y2="228.258"/>
</g>
<g>
</g>
<g>
</g>
<g>
</g>
<g>
</g>
<g>
</g>
<g>
</g>
</svg>
