<?xml version="1.0" encoding="iso-8859-1"?>
<!-- Generator: Adobe Illustrator 17.0.0, SVG Export Plug-In . SVG Version: 6.00 Build 0)  -->
<!DOCTYPE svg PUBLIC "-//W3C//DTD SVG 1.1//EN" "http://www.w3.org/Graphics/SVG/1.1/DTD/svg11.dtd">
<svg version="1.1" id="Layer_1" xmlns="http://www.w3.org/2000/svg" xmlns:xlink="http://www.w3.org/1999/xlink" x="0px" y="0px"
	 width="181.25px" height="245.75px" viewBox="0 0 181.25 245.75" enable-background="new 0 0 181.25 245.75" xml:space="preserve">
<path fill="#FFFFFF" stroke="#000000" stroke-width="4" stroke-miterlimit="10" d="M84.66,7.333c0,0,33.167-4,51.5,17.833
	S152.16,73,148.993,91.5l0,0c0,0,5.958,0.01,6.292,5.344s-3.927,14.625-5.344,15.875c-2.288,2.019-3.948,3.073-9.281,1.781
	c0,0-4.5,16.5-11.667,23.5c-7.167,7-16.208,12-16.208,12v10c0,0-0.282,3.391,4.042,6.167c6.306,4.048,13.167,7.5,33.5,15.667
	c11.627,4.67,26.208,10.042,26.208,25.917c0,4.75-43.017,32.5-85.955,32.5l0,0c-46,0-85.955-25.083-85.955-32.5
	c0-15.875,14.582-21.247,26.208-25.917c20.333-8.167,27.194-11.619,33.5-15.667c4.324-2.775,4.042-6.167,4.042-6.167v-10
	c0,0-9.042-5-16.208-12S40.5,114.5,40.5,114.5c-5.333,1.292-6.993,0.238-9.281-1.781c-1.417-1.25-5.677-10.542-5.344-15.875
	s6.292-5.344,6.292-5.344l0,0C29,73,26.667,47,45,25.167S96.5,7.333,96.5,7.333"/>
<path fill="none" stroke="#000000" stroke-width="4" stroke-miterlimit="10" d="M150.377,82.005
	c-32.083,0-39.877-28.755-39.877-28.755S83.167,82.833,31.833,82.833"/>
<path fill="none" stroke="#000000" stroke-width="4" stroke-miterlimit="10" d="M62.25,165.5"/>
<path fill="none" stroke="#000000" stroke-width="4" stroke-miterlimit="10" d="M120.496,168.508"/>
<path fill="none" stroke="#000000" stroke-width="4" stroke-miterlimit="10" d="M177,156.501"/>
<path fill="none" stroke="#000000" stroke-width="4" stroke-miterlimit="10" d="M151.477,75"/>
<path fill="#FFFFFF" stroke="#000000" stroke-width="4" stroke-miterlimit="10" d="M65.27,165.5c0,0,17.774,19.994,24.927,20
	c6.927,0.005,24.927-20,24.927-20"/>
<path fill="none" stroke="#000000" stroke-width="4" stroke-miterlimit="10" d="M68.375,155.667"/>
<line fill="none" stroke="#000000" stroke-width="4" stroke-miterlimit="10" x1="51.464" y1="173.101" x2="51.034" y2="170.827"/>
<polyline fill="none" stroke="#000000" stroke-width="4" stroke-miterlimit="10" points="90.198,186 63.5,209.333 51.104,173.267 
	"/>
<path fill="none" stroke="#000000" stroke-width="4" stroke-miterlimit="10" d="M86.833,241c0-0.5-23.833-31.667-23.833-31.667"/>
<polyline fill="none" stroke="#000000" stroke-width="4" stroke-miterlimit="10" points="91.98,186 118.678,209.333 
	131.074,173.267 "/>
<line fill="none" stroke="#000000" stroke-width="4" stroke-miterlimit="10" x1="93.756" y1="240.199" x2="118.878" y2="208.751"/>
<path fill="none" stroke="#000000" stroke-width="4" stroke-miterlimit="10" d="M80.75,194.625c0,0,3.708,7.313,5.375,8.063
	s7.833,0.925,9.198,0.344c0.506-0.215,7.302-8.406,7.302-8.406"/>
<line fill="#FFFFFF" stroke="#000000" stroke-width="4" stroke-miterlimit="10" x1="86.125" y1="202.688" x2="76.568" y2="227.157"/>
<line fill="#FFFFFF" stroke="#000000" stroke-width="4" stroke-miterlimit="10" x1="94.809" y1="202.688" x2="104.232" y2="227.475"/>
<polyline fill="none" stroke="#000000" stroke-width="4" stroke-miterlimit="10" points="98,93.833 98,117.333 84.667,117.333 "/>
<g>
</g>
<g>
</g>
<g>
</g>
<g>
</g>
<g>
</g>
<g>
</g>
</svg>
