<?xml version="1.0" encoding="iso-8859-1"?>
<!-- Generator: Adobe Illustrator 17.0.0, SVG Export Plug-In . SVG Version: 6.00 Build 0)  -->
<!DOCTYPE svg PUBLIC "-//W3C//DTD SVG 1.1//EN" "http://www.w3.org/Graphics/SVG/1.1/DTD/svg11.dtd">
<svg version="1.1" id="Layer_1" xmlns="http://www.w3.org/2000/svg" xmlns:xlink="http://www.w3.org/1999/xlink" x="0px" y="0px"
	 width="181.25px" height="245.75px" viewBox="0 0 181.25 245.75" style="enable-background:new 0 0 181.25 245.75;"
	 xml:space="preserve">
<path style="fill:#FFFFFF;stroke:#000000;stroke-width:4;stroke-miterlimit:10;" d="M84.66,7.333c0,0,33.167-4,51.5,17.833
	S152.16,73,148.993,91.5l0,0c0,0,5.958,0.01,6.292,5.344s-3.927,14.625-5.344,15.875c-2.288,2.019-3.948,3.073-9.281,1.781
	c0,0-4.5,16.5-11.667,23.5c-7.167,7-16.208,12-16.208,12v10c0,0-0.282,3.391,4.042,6.167c6.306,4.048,13.167,7.5,33.5,15.667
	c11.627,4.67,26.208,10.042,26.208,25.917c0,4.75-43.017,32.5-85.955,32.5l0,0c-46,0-85.955-25.083-85.955-32.5
	c0-15.875,14.582-21.247,26.208-25.917c20.333-8.167,27.194-11.619,33.5-15.667c4.324-2.775,4.042-6.167,4.042-6.167v-10
	c0,0-9.042-5-16.208-12S40.5,114.5,40.5,114.5c-5.333,1.292-6.993,0.238-9.281-1.781c-1.417-1.25-5.677-10.542-5.344-15.875
	s6.292-5.344,6.292-5.344l0,0C29,73,26.667,47,45,25.167S96.5,7.333,96.5,7.333"/>
<path style="fill:none;stroke:#000000;stroke-width:4;stroke-miterlimit:10;" d="M150.377,82.005
	c-32.083,0-39.877-28.755-39.877-28.755S83.167,82.833,31.833,82.833"/>
<path style="fill:none;stroke:#000000;stroke-width:4;stroke-miterlimit:10;" d="M62.25,165.5"/>
<path style="fill:none;stroke:#000000;stroke-width:4;stroke-miterlimit:10;" d="M120.496,168.508"/>
<path style="fill:none;stroke:#000000;stroke-width:4;stroke-miterlimit:10;" d="M177,156.501"/>
<path style="fill:none;stroke:#000000;stroke-width:4;stroke-miterlimit:10;" d="M151.477,75"/>
<path style="fill:#FFFFFF;stroke:#000000;stroke-width:4;stroke-miterlimit:10;" d="M63.131,119.625c0,0,6.375,14.351,14.351,14.351
	s9.783-5.517,12.268-7.643c0.92-0.787,1.208-0.227,1.893,0.417c1.939,1.824,4.524,7.226,10.274,7.226s16.292-13.351,18.042-15.101
	s-8.688,5.813-11.375,3.125s-7.625-8.75-12-8.75s-4.375,5.125-6.375,5.125s-3.625-5.75-7.5-5.75s-5.646,9.875-8.958,9.875
	S69.428,123.375,63.131,119.625z"/>
<g>
</g>
<g>
</g>
<g>
</g>
<g>
</g>
<g>
</g>
<g>
</g>
</svg>
