<?xml version="1.0" encoding="iso-8859-1"?>
<!-- Generator: Adobe Illustrator 17.0.0, SVG Export Plug-In . SVG Version: 6.00 Build 0)  -->
<!DOCTYPE svg PUBLIC "-//W3C//DTD SVG 1.1//EN" "http://www.w3.org/Graphics/SVG/1.1/DTD/svg11.dtd">
<svg version="1.1" id="Layer_1" xmlns="http://www.w3.org/2000/svg" xmlns:xlink="http://www.w3.org/1999/xlink" x="0px" y="0px"
	 width="100px" height="100px" viewBox="0 0 100 100" style="enable-background:new 0 0 100 100;" xml:space="preserve">
<path style="fill:#FFFFFF;stroke:#010101;stroke-miterlimit:10;" d="M60.324,47.061"/>
<path id="qb" style="fill:#2CA048;" d="M12.563,48.305c0,11.175,8.986,20.16,20.16,20.16h2.88v-7.488h-2.88
	c-7.027,0-12.672-5.645-12.672-12.672s5.645-12.672,12.672-12.672h6.912c0,0,0,38.477,0,39.169c0,4.147,3.341,7.488,7.488,7.488
	V28.145c0,0-7.719,0-14.4,0C21.549,28.145,12.563,37.246,12.563,48.305z M67.284,28.145h-2.88v7.488h2.88
	c7.027,0,12.672,5.645,12.672,12.672c0,7.027-5.645,12.672-12.672,12.672h-6.912c0,0,0-38.477,0-39.169
	c0-4.147-3.341-7.488-7.488-7.488v54.145c0,0,7.719,0,14.4,0c11.175,0,20.16-8.986,20.16-20.16
	C87.444,37.246,78.459,28.145,67.284,28.145z"/>
<g>
</g>
<g>
</g>
<g>
</g>
<g>
</g>
<g>
</g>
<g>
</g>
</svg>
