<?xml version="1.0" encoding="iso-8859-1"?>
<!-- Generator: Adobe Illustrator 17.0.0, SVG Export Plug-In . SVG Version: 6.00 Build 0)  -->
<!DOCTYPE svg PUBLIC "-//W3C//DTD SVG 1.1//EN" "http://www.w3.org/Graphics/SVG/1.1/DTD/svg11.dtd">
<svg version="1.1" id="Layer_1" xmlns="http://www.w3.org/2000/svg" xmlns:xlink="http://www.w3.org/1999/xlink" x="0px" y="0px"
	 width="154.875px" height="257.25px" viewBox="0 0 154.875 257.25" style="enable-background:new 0 0 154.875 257.25;"
	 xml:space="preserve">
<path style="fill:none;stroke:#000000;stroke-width:3;stroke-miterlimit:10;" d="M4.469,251.393c0,0,1.39-19.402,17.227-19.993
	s18.726,20.152,18.726,20.152l-0.002-0.042c0,0,1.39-19.402,17.227-19.993s18.726,20.152,18.726,20.152l0.141-0.11
	c0,0,1.39-19.402,17.227-19.993s18.726,20.152,18.726,20.152l-0.002-0.042c0,0,1.39-19.402,17.227-19.993
	c15.837-0.591,18.726,20.152,18.726,20.152h0.261V6.333v0.297c0,0-1.39,19.402-17.227,19.993S112.724,6.472,112.724,6.472
	l0.002,0.042c0,0-1.39,19.402-17.227,19.993S76.773,6.355,76.773,6.355l-0.141,0.11c0,0-1.39,19.402-17.227,19.993
	S40.68,6.307,40.68,6.307l0.002,0.042c0,0-1.39,19.402-17.227,19.993S4.729,6.19,4.729,6.19H4.469v245.5"/>
<line style="fill:none;stroke:#000000;stroke-width:3;stroke-miterlimit:10;" x1="23.844" y1="81.167" x2="98.177" y2="81.167"/>
<line style="fill:none;stroke:#000000;stroke-width:3;stroke-miterlimit:10;" x1="113.677" y1="81.167" x2="119.344" y2="81.167"/>
<line style="fill:none;stroke:#000000;stroke-width:3;stroke-miterlimit:10;" x1="24.344" y1="117.167" x2="98.677" y2="117.167"/>
<line style="fill:none;stroke:#000000;stroke-width:3;stroke-miterlimit:10;" x1="114.177" y1="117.167" x2="119.844" y2="117.167"/>
<line style="fill:none;stroke:#000000;stroke-width:3;stroke-miterlimit:10;" x1="24.344" y1="180" x2="57.344" y2="180"/>
<path style="fill:none;stroke:#000000;stroke-width:3;stroke-miterlimit:10;" d="M120.844,165c0,0-5.583-3.583-12.5-3.583
	s-13.406,4.25-13.406,11.833s8.092,8.414,14.323,9.583c5.052,0.948,10.625,3.5,10.625,10.625s-5.152,10.511-10.792,10.25
	c-9.438-0.438-14.5-3.042-16.667-5.208"/>
<line style="fill:none;stroke:#000000;stroke-width:3;stroke-miterlimit:10;" x1="106.385" y1="152.167" x2="106.385" y2="211.5"/>
<g>
</g>
<g>
</g>
<g>
</g>
<g>
</g>
<g>
</g>
<g>
</g>
</svg>
