<?xml version="1.0" encoding="iso-8859-1"?>
<!-- Generator: Adobe Illustrator 17.0.0, SVG Export Plug-In . SVG Version: 6.00 Build 0)  -->
<!DOCTYPE svg PUBLIC "-//W3C//DTD SVG 1.1//EN" "http://www.w3.org/Graphics/SVG/1.1/DTD/svg11.dtd">
<svg version="1.1" id="Layer_1" xmlns="http://www.w3.org/2000/svg" xmlns:xlink="http://www.w3.org/1999/xlink" x="0px" y="0px"
	 width="290.5px" height="178px" viewBox="0 0 290.5 178" style="enable-background:new 0 0 290.5 178;" xml:space="preserve">
<path style="fill:#FFFFFF;" d="M105.25,36.75"/>
<path style="fill:#FFFFFF;stroke:#000000;stroke-width:3;stroke-miterlimit:10;" d="M221.687,51.551"/>
<path style="fill:#FFFFFF;stroke:#000000;stroke-width:3;stroke-miterlimit:10;" d="M161.5,114.25"/>
<path style="fill:none;stroke:#000000;stroke-width:3;stroke-miterlimit:10;" d="M200.5,174.25H60l-9.833-0.088
	c-0.923,0.058-1.854,0.088-2.792,0.088c-24.093,0-43.625-19.532-43.625-43.625c0-22.588,17.166-41.166,39.165-43.4l-1.658-1.767
	C41.679,58.485,63.676,36.75,90.75,36.75c4.493,0,8.846,0.599,12.983,1.72C113.705,17.012,136.28,4,161.5,4
	c29.795,0,53.776,19.703,60.187,47.551l0,0c0.85-0.034,1.705-0.051,2.563-0.051c34.656,0,62.75,28.094,62.75,62.75
	s-26.761,60.333-61.417,60.333C224.177,174.583,201.884,174.341,200.5,174.25"/>
<g>
</g>
<g>
</g>
<g>
</g>
<g>
</g>
<g>
</g>
<g>
</g>
</svg>
