<?xml version="1.0" encoding="iso-8859-1"?>
<!-- Generator: Adobe Illustrator 17.0.0, SVG Export Plug-In . SVG Version: 6.00 Build 0)  -->
<!DOCTYPE svg PUBLIC "-//W3C//DTD SVG 1.1//EN" "http://www.w3.org/Graphics/SVG/1.1/DTD/svg11.dtd">
<svg version="1.1" id="Layer_1" xmlns="http://www.w3.org/2000/svg" xmlns:xlink="http://www.w3.org/1999/xlink" x="0px" y="0px"
	 width="954.75px" height="264.012px" viewBox="0 0 954.75 264.012" style="enable-background:new 0 0 954.75 264.012;"
	 xml:space="preserve">
<path style="fill:none;stroke:#D7DAE3;stroke-width:4;stroke-miterlimit:10;" d="M951.125,264.012L906,88.115c0,0-18-85-107-85
	s-323,0-323,0h2.125c0,0-234,0-323,0s-107,85-107,85L3,264.012"/>
<path style="fill:none;stroke:#D7DAE3;stroke-width:4;stroke-miterlimit:10;" d="M246.774,141.556c1.172,1.172,1.172,3.071,0,4.243
	l-40.069,40.069c-1.172,1.172-3.071,1.172-4.243,0l-40.069-40.069c-1.172-1.172-1.172-3.071,0-4.243l40.069-40.069
	c1.172-1.172,3.071-1.172,4.243,0L246.774,141.556z"/>
<g>
	<g>
		<path style="fill:#D7DAE3;" d="M348.571,116.133h-8.365v-7.332h8.365V116.133z M348.571,162.502h-8.365v-37.247h8.365V162.502z"/>
		<path style="fill:#D7DAE3;" d="M365.338,144.395c0-5.943,1.273-10.734,3.821-14.372c2.547-3.637,6.127-5.456,10.74-5.456
			c2.157,0,4.062,0.448,5.714,1.342c1.652,0.896,3.063,2.181,4.234,3.855l0.964-4.509h6.781v51.567h-8.365v-17.832
			c-1.147,1.4-2.501,2.456-4.062,3.167c-1.561,0.711-3.339,1.067-5.336,1.067c-4.567,0-8.124-1.664-10.671-4.991
			c-2.547-3.328-3.821-7.7-3.821-13.116V144.395z M373.703,145.099c0,3.438,0.66,6.2,1.979,8.285
			c1.319,2.086,3.413,3.128,6.282,3.128c1.698,0,3.138-0.338,4.32-1.014c1.182-0.676,2.163-1.656,2.943-2.939v-17.326
			c-0.78-1.237-1.767-2.205-2.96-2.904c-1.194-0.699-2.605-1.049-4.234-1.049c-2.846,0-4.946,1.221-6.3,3.662
			s-2.031,5.586-2.031,9.437V145.099z"/>
		<path style="fill:#D7DAE3;" d="M448.475,145.118c0,5.438-1.268,9.816-3.804,13.132c-2.536,3.316-6.11,4.975-10.723,4.975
			c-2.318,0-4.332-0.471-6.042-1.411c-1.71-0.941-3.138-2.318-4.286-4.131l-0.826,4.819h-7.022v-53.702h8.365v20.688
			c1.147-1.583,2.524-2.799,4.131-3.648c1.606-0.849,3.477-1.274,5.611-1.274c4.659,0,8.256,1.813,10.792,5.439
			c2.536,3.626,3.804,8.422,3.804,14.389V145.118z M440.11,144.395c0-3.878-0.666-7.011-1.997-9.398
			c-1.331-2.386-3.442-3.58-6.334-3.58c-1.858,0-3.414,0.413-4.664,1.239c-1.251,0.826-2.244,1.974-2.978,3.442v15.629
			c0.711,1.492,1.698,2.645,2.96,3.459c1.262,0.815,2.846,1.222,4.751,1.222c2.892,0,4.991-1.016,6.299-3.047
			c1.308-2.031,1.962-4.779,1.962-8.244V144.395z"/>
		<path style="fill:#D7DAE3;" d="M463.109,143.534c0-5.53,1.515-10.074,4.544-13.632c3.075-3.557,7.24-5.335,12.496-5.335
			c5.347,0,9.536,1.779,12.565,5.335c3.052,3.535,4.578,8.079,4.578,13.632v0.723c0,5.6-1.526,10.167-4.578,13.701
			c-3.029,3.511-7.195,5.267-12.496,5.267c-5.324,0-9.513-1.767-12.564-5.301c-3.029-3.535-4.544-8.09-4.544-13.667V143.534z
			 M471.474,144.24c0,3.621,0.711,6.578,2.134,8.869c1.399,2.269,3.603,3.403,6.609,3.403c2.914,0,5.095-1.134,6.541-3.403
			c1.468-2.292,2.203-5.249,2.203-8.869v-0.722c0-3.552-0.735-6.474-2.203-8.766c-1.446-2.314-3.649-3.472-6.609-3.472
			c-2.915,0-5.095,1.158-6.541,3.472c-1.423,2.315-2.134,5.237-2.134,8.766V144.24z"/>
		<path style="fill:#D7DAE3;" d="M526.005,138.026l6.885-12.771h9.604l-11.704,18.416l12.048,18.831h-9.501l-7.194-13.082
			l-7.194,13.082h-9.57l12.049-18.831l-11.704-18.416h9.501L526.005,138.026z"/>
		<path style="fill:#D7DAE3;" d="M569.692,147.562l0.826,3.718h0.206l8.158-26.024h9.157l-15.422,42.893
			c-0.987,2.593-2.375,4.808-4.165,6.644s-4.326,2.754-7.607,2.754c-0.689,0-1.429-0.068-2.221-0.206s-1.555-0.299-2.289-0.482
			l0.93-6.472c0.298,0.022,0.723,0.057,1.273,0.104c0.551,0.046,0.964,0.068,1.239,0.068c1.515,0,2.725-0.516,3.632-1.549
			c0.906-1.032,1.646-2.227,2.22-3.58l1.377-3.373l-13.528-36.8h9.122L569.692,147.562z"/>
		<path style="fill:#D7DAE3;" d="M605.909,162.502h-8.331v-8.021h8.331V162.502z"/>
		<path style="fill:#D7DAE3;" d="M640.749,156.512c2.042,0,3.764-0.599,5.163-1.797c1.399-1.199,2.1-2.699,2.1-4.502h7.574
			l0.068,0.206c0.114,3.489-1.303,6.495-4.251,9.02c-2.949,2.524-6.501,3.786-10.654,3.786c-5.485,0-9.69-1.767-12.616-5.301
			c-2.927-3.535-4.39-8.01-4.39-13.426v-1.205c0-5.393,1.463-9.862,4.39-13.408c2.926-3.545,7.131-5.318,12.616-5.318
			c4.475,0,8.106,1.303,10.895,3.907c2.789,2.605,4.137,5.916,4.045,9.931l-0.068,0.207h-7.608c0-2.042-0.671-3.775-2.014-5.198
			c-1.342-1.423-3.093-2.135-5.249-2.135c-3.145,0-5.37,1.141-6.679,3.421c-1.308,2.281-1.962,5.14-1.962,8.577v1.203
			c0,3.506,0.654,6.388,1.962,8.646C635.379,155.384,637.604,156.512,640.749,156.512z"/>
		<path style="fill:#D7DAE3;" d="M669.772,143.534c0-5.53,1.515-10.074,4.544-13.632c3.075-3.557,7.24-5.335,12.495-5.335
			c5.348,0,9.536,1.779,12.565,5.335c3.052,3.535,4.578,8.079,4.578,13.632v0.723c0,5.6-1.526,10.167-4.578,13.701
			c-3.029,3.511-7.194,5.267-12.496,5.267c-5.324,0-9.513-1.767-12.564-5.301c-3.029-3.535-4.544-8.09-4.544-13.667V143.534z
			 M678.138,144.24c0,3.621,0.711,6.578,2.134,8.869c1.399,2.269,3.603,3.403,6.609,3.403c2.914,0,5.095-1.134,6.54-3.403
			c1.469-2.292,2.203-5.249,2.203-8.869v-0.722c0-3.552-0.734-6.474-2.203-8.766c-1.445-2.314-3.648-3.472-6.609-3.472
			c-2.914,0-5.094,1.158-6.54,3.472c-1.423,2.315-2.134,5.237-2.134,8.766V144.24z"/>
		<path style="fill:#D7DAE3;" d="M727.849,125.255l0.447,4.854c1.216-1.767,2.742-3.133,4.578-4.097s3.959-1.446,6.368-1.446
			c2.433,0,4.521,0.551,6.266,1.652c1.743,1.102,3.052,2.754,3.924,4.957c1.147-2.065,2.662-3.683,4.544-4.854
			c1.882-1.17,4.085-1.755,6.609-1.755c3.74,0,6.695,1.28,8.864,3.838c2.169,2.559,3.253,6.443,3.253,11.652v22.445h-8.365v-22.479
			c0-3.167-0.545-5.393-1.635-6.679c-1.09-1.285-2.726-1.928-4.905-1.928c-1.79,0-3.305,0.482-4.544,1.446s-2.135,2.26-2.686,3.89
			c0,0.344,0.012,0.643,0.035,0.895c0.022,0.253,0.034,0.494,0.034,0.723v24.131h-8.365v-22.479c0-3.052-0.557-5.25-1.669-6.592
			c-1.113-1.343-2.749-2.014-4.906-2.014c-1.698,0-3.138,0.327-4.319,0.981c-1.183,0.654-2.117,1.578-2.806,2.771v27.333h-8.365
			v-37.247H727.849z"/>
	</g>
</g>
<g>
</g>
<g>
</g>
<g>
</g>
<g>
</g>
<g>
</g>
<g>
</g>
</svg>
