<?xml version="1.0" encoding="utf-8"?>
<!-- Generator: Adobe Illustrator 17.0.0, SVG Export Plug-In . SVG Version: 6.00 Build 0)  -->
<!DOCTYPE svg PUBLIC "-//W3C//DTD SVG 1.1//EN" "http://www.w3.org/Graphics/SVG/1.1/DTD/svg11.dtd">
<svg version="1.1" id="Layer_1" xmlns="http://www.w3.org/2000/svg" xmlns:xlink="http://www.w3.org/1999/xlink" x="0px" y="0px"
	 width="1024px" height="201.888px" viewBox="-9 -5.111 1024 201.888" enable-background="new -9 -5.111 1024 201.888"
	 xml:space="preserve">
<path fill="#FFFFFF" stroke="#D7DAE3" stroke-width="3" stroke-miterlimit="10" d="M1006.793,196.777c0,0,0-17.225,0-57.636
	c0-54.655-61.731-132.727-161.502-132.727c-66.904,0-347.406,0.147-347.406,0.147s-267.237-0.16-334.141-0.16
	C63.972,6.402,2.241,84.474,2.241,139.129c0,40.411,0,57.636,0,57.636"/>
<circle fill="#D7DAE3" cx="374.258" cy="103.348" r="17.75"/>
<path fill="#D7DAE3" d="M599.413,106.348c0,6.667-4.833,8.583-8.25,8.583H433.496c-1.657,0-6.917-1.875-6.917-7.083v-6.333
	c0-6.042,5.26-7.917,6.917-7.917h158.625c3.083,0,7.483,1.213,7.483,8.046L599.413,106.348z"/>
</svg>
