<?xml version="1.0" encoding="iso-8859-1"?>
<!-- Generator: Adobe Illustrator 17.0.0, SVG Export Plug-In . SVG Version: 6.00 Build 0)  -->
<!DOCTYPE svg PUBLIC "-//W3C//DTD SVG 1.1//EN" "http://www.w3.org/Graphics/SVG/1.1/DTD/svg11.dtd">
<svg version="1.1" id="Layer_1" xmlns="http://www.w3.org/2000/svg" xmlns:xlink="http://www.w3.org/1999/xlink" x="0px" y="0px"
	 width="160.8px" height="159.7px" viewBox="0 0 160.8 159.7" enable-background="new 0 0 160.8 159.7" xml:space="preserve">
<g>
	<path fill="none" stroke="#0B0B0B" stroke-miterlimit="10" d="M159.1,128c0,16.5-13.5,30-30,30H32.8c-16.5,0-30-13.5-30-30V31.7
		c0-16.5,13.5-30,30-30h96.3c16.5,0,30,13.5,30,30V128z"/>
</g>
<g>
	<path fill="none" stroke="#0B0B0B" stroke-miterlimit="10" d="M23.8,59c0,0,0-8,0-17.8s9-17.8,20-17.8h74.3c11,0,20,9,20,20v74.3
		c0,11-9,20-20,20H43.7c-11,0-20-9-20-20V59"/>
</g>
<g>
	<path fill="none" stroke="#0B0B0B" stroke-miterlimit="10" d="M29.4,64.8c0,2.8-2.3,5-5,5h-0.3c-2.8,0-5-2.3-5-5V50.7
		c0-2.8,2.3-5,5-5h0.3c2.8,0,5,2.3,5,5V64.8z"/>
</g>
<g>
	<path fill="none" stroke="#0B0B0B" stroke-miterlimit="10" d="M29.4,112c0,2.8-2.3,5-5,5h-0.3c-2.8,0-5-2.3-5-5V97.8
		c0-2.8,2.3-5,5-5h0.3c2.8,0,5,2.3,5,5V112z"/>
</g>
<circle fill="none" stroke="#0B0B0B" stroke-miterlimit="10" cx="98.3" cy="96.5" r="20.1"/>
<ellipse fill="none" stroke="#0B0B0B" stroke-miterlimit="10" cx="76.4" cy="49.8" rx="19.7" ry="4.8"/>
<path fill="none" stroke="#0B0B0B" stroke-miterlimit="10" d="M56.8,49.8v48.8c0,0,6,4.4,22.8,4.4"/>
<line fill="none" stroke="#0B0B0B" stroke-miterlimit="10" x1="96.1" y1="49.3" x2="96.1" y2="76.4"/>
<path fill="none" stroke="#0B0B0B" stroke-miterlimit="10" d="M96.1,58.2c0,2.6-8.8,4.8-19.7,4.8c-2.5,0-4.9-0.1-7.2-0.3"/>
<path fill="none" stroke="#0B0B0B" stroke-miterlimit="10" d="M65.8,61.8c-0.9-0.1-1.7-0.3-2.4-0.4"/>
<path fill="none" stroke="#0B0B0B" stroke-miterlimit="10" d="M56.8,66.2c0,2.6,8.8,4.8,19.7,4.8c2.5,0,4.9-0.1,7.2-0.3"/>
<path fill="none" stroke="#0B0B0B" stroke-miterlimit="10" d="M87.1,69.8c0.9-0.1,1.7-0.3,2.4-0.4"/>
<path fill="none" stroke="#0B0B0B" stroke-miterlimit="10" d="M89.5,78.4c-3.5,0.7-8.1,1.2-13.1,1.2c-10.9,0-19.7-2.1-19.7-4.8"/>
<path fill="none" stroke="#0B0B0B" stroke-miterlimit="10" d="M90,77.7"/>
<path fill="none" stroke="#0B0B0B" stroke-miterlimit="10" d="M80.2,87.2c-1.3,0.1-3.1,0.2-4.5,0.2c-2.5,0-4.9-0.1-7.2-0.3"/>
<path fill="none" stroke="#0B0B0B" stroke-miterlimit="10" d="M65.1,86.2c-0.9-0.1-1.7-0.3-2.4-0.4"/>
<path fill="none" stroke="#0B0B0B" stroke-miterlimit="10" d="M78.1,95c-0.4,0-1.3,0.1-1.7,0.1c-10.9,0-19.7-2.1-19.7-4.8"/>
<path fill="none" stroke="#0B0B0B" stroke-miterlimit="10" d="M104.1,89c0,0-1.7-2.8-5.8-2.8c-4.1,0-5.6,2.6-5.6,4.7
	c0,2.7,2.1,5.6,6.8,5.6s5.1,3.1,5.1,4.5s-1.8,5.6-5.6,5.6s-6.3-1.3-6.3-3.3"/>
<line fill="none" stroke="#0B0B0B" stroke-miterlimit="10" x1="98.7" y1="82.3" x2="99" y2="110.9"/>
</svg>
