<?xml version="1.0" encoding="iso-8859-1"?>
<!-- Generator: Adobe Illustrator 17.0.0, SVG Export Plug-In . SVG Version: 6.00 Build 0)  -->
<!DOCTYPE svg PUBLIC "-//W3C//DTD SVG 1.1//EN" "http://www.w3.org/Graphics/SVG/1.1/DTD/svg11.dtd">
<svg version="1.1" id="Layer_1" xmlns="http://www.w3.org/2000/svg" xmlns:xlink="http://www.w3.org/1999/xlink" x="0px" y="0px"
	 width="100px" height="100px" viewBox="0 0 100 100" style="enable-background:new 0 0 100 100;" xml:space="preserve">
<g id="g10" transform="matrix(1.3333333,0,0,-1.3333333,0,1133.8587)">
	<g id="g12">
		<g>
			<g id="g14">
				<path id="path22" style="fill:#18B4D6;" d="M-241.162,860.085l11.195,11.223c0.371,0.378,0.578,0.879,0.578,1.41
					c0,1.107-0.9,2.006-2.007,2.006c-0.539,0-1.045-0.211-1.426-0.597c-0.001-0.002-11.185-11.18-11.185-11.18l-11.235,11.197
					c-0.38,0.374-0.883,0.581-1.416,0.581c-1.106,0-2.006-0.898-2.006-2.004c0-0.539,0.215-1.046,0.602-1.427l11.194-11.192
					l-11.188-11.209c-0.393-0.387-0.608-0.895-0.608-1.436c0-1.107,0.9-2.005,2.006-2.005c0.534,0,1.038,0.207,1.416,0.586
					l11.218,11.203l11.175-11.162c0.396-0.41,0.908-0.628,1.453-0.628c1.106,0,2.006,0.899,2.006,2.006
					c0,0.534-0.207,1.036-0.583,1.414L-241.162,860.085z"/>
				<path id="path24" style="fill:#18B4D6;" d="M-174.608,860.088c0-2.01,1.634-3.645,3.647-3.645c2.008,0,3.643,1.635,3.643,3.645
					c0,2.01-1.635,3.645-3.643,3.645C-172.974,863.734-174.608,862.099-174.608,860.088"/>
				<path id="path26" style="fill:#18B4D6;" d="M-181.521,860.087c0,5.821,4.735,10.557,10.556,10.557
					c5.818,0,10.555-4.736,10.555-10.557c0-5.819-4.736-10.553-10.555-10.553C-176.786,849.533-181.521,854.267-181.521,860.087
					 M-185.674,860.087c0-8.109,6.598-14.707,14.709-14.707c8.11,0,14.712,6.597,14.712,14.707c0,8.11-6.602,14.71-14.712,14.71
					C-179.075,874.796-185.674,868.197-185.674,860.087"/>
				<path id="path28" style="fill:#18B4D6;" d="M-186.718,874.545l-0.617,0.002c-1.853,0-3.639-0.584-5.132-1.734
					c-0.197,0.9-1.001,1.577-1.959,1.577c-1.103,0-1.986-0.884-1.989-1.989c0-0.004,0.007-24.773,0.007-24.773
					c0.003-1.103,0.903-2,2.006-2c1.103,0,2.003,0.897,2.006,2.002c0,0.005,0.001,15.232,0.001,15.232
					c0,5.077,0.464,7.127,4.813,7.671c0.402,0.05,0.839,0.042,0.841,0.042c1.19,0.041,2.036,0.859,2.036,1.964
					C-184.706,873.645-185.609,874.545-186.718,874.545"/>
				<path id="path30" style="fill:#18B4D6;" d="M-225.233,862.508c0,0.055,0.004,0.112,0.007,0.168
					c1.165,4.604,5.334,8.01,10.299,8.01c5.025,0,9.233-3.49,10.338-8.179H-225.233z M-200.482,862.887
					c-0.864,4.092-3.105,7.454-6.517,9.613c-4.987,3.166-11.573,2.991-16.39-0.435c-3.929-2.795-6.198-7.368-6.198-12.079
					c0-1.181,0.142-2.373,0.439-3.547c1.484-5.837,6.501-10.255,12.483-10.987c1.775-0.215,3.503-0.112,5.292,0.351
					c1.538,0.374,3.025,0.998,4.396,1.876c1.423,0.915,2.611,2.121,3.763,3.564c0.023,0.027,0.047,0.05,0.07,0.078
					c0.799,0.991,0.651,2.4-0.227,3.073c-0.741,0.568-1.984,0.798-2.962-0.455c-0.21-0.299-0.445-0.608-0.703-0.916
					c-0.778-0.859-1.743-1.692-2.899-2.338c-1.471-0.786-3.148-1.235-4.931-1.245c-5.834,0.065-8.957,4.138-10.067,7.044
					c-0.194,0.543-0.343,1.106-0.448,1.686c-0.014,0.108-0.024,0.213-0.028,0.31c1.206,0,20.937,0.003,20.937,0.003
					C-201.6,858.544-200.055,860.57-200.482,862.887"/>
			</g>
		</g>
	</g>
</g>
<g id="g10_1_" transform="matrix(1.3333333,0,0,-1.3333333,0,1133.8587)">
	<g id="g12_1_">
		<g>
			<g id="g14_1_">
				<path id="path22_1_" style="fill:#18B4D6;" d="M20.852,813.069l5.773,5.787c0.191,0.195,0.298,0.453,0.298,0.727
					c0,0.571-0.464,1.034-1.035,1.034c-0.278,0-0.539-0.109-0.735-0.308c-0.001-0.001-5.768-5.765-5.768-5.765l-5.794,5.774
					c-0.196,0.193-0.455,0.299-0.73,0.299c-0.57,0-1.034-0.463-1.034-1.034c0-0.278,0.111-0.539,0.31-0.736l5.772-5.772l-5.769-5.78
					c-0.203-0.2-0.313-0.461-0.313-0.741c0-0.571,0.464-1.034,1.034-1.034c0.276,0,0.535,0.107,0.73,0.302l5.785,5.777l5.763-5.756
					c0.204-0.211,0.468-0.324,0.749-0.324c0.57,0,1.034,0.464,1.034,1.034c0,0.275-0.107,0.534-0.301,0.729L20.852,813.069z"/>
				<path id="path24_1_" style="fill:#18B4D6;" d="M55.173,813.07c0-1.036,0.843-1.88,1.881-1.88c1.035,0,1.879,0.843,1.879,1.88
					c0,1.037-0.843,1.88-1.879,1.88C56.016,814.95,55.173,814.107,55.173,813.07"/>
				<path id="path26_1_" style="fill:#18B4D6;" d="M51.608,813.069c0,3.002,2.442,5.444,5.444,5.444c3,0,5.443-2.442,5.443-5.444
					c0-3.001-2.442-5.442-5.443-5.442C54.05,807.627,51.608,810.068,51.608,813.069 M49.466,813.069
					c0-4.182,3.403-7.584,7.585-7.584c4.182,0,7.587,3.402,7.587,7.584c0,4.182-3.404,7.585-7.587,7.585
					C52.869,820.655,49.466,817.252,49.466,813.069"/>
				<path id="path28_1_" style="fill:#18B4D6;" d="M48.928,820.525l-0.318,0.001c-0.955,0-1.877-0.301-2.646-0.894
					c-0.101,0.464-0.516,0.813-1.01,0.813c-0.569,0-1.024-0.456-1.026-1.025c0-0.002,0.003-12.775,0.003-12.775
					c0.001-0.569,0.465-1.031,1.034-1.031c0.569,0,1.033,0.462,1.034,1.032c0,0.003,0,7.855,0,7.855
					c0,2.618,0.239,3.675,2.482,3.956c0.207,0.026,0.433,0.022,0.434,0.022c0.614,0.021,1.05,0.443,1.05,1.013
					C49.966,820.061,49.5,820.525,48.928,820.525"/>
				<path id="path30_1_" style="fill:#18B4D6;" d="M29.066,814.318c0,0.028,0.002,0.058,0.004,0.087
					c0.601,2.374,2.751,4.131,5.311,4.131c2.592,0,4.761-1.8,5.331-4.218H29.066z M41.83,814.513
					c-0.446,2.11-1.601,3.844-3.361,4.957c-2.572,1.633-5.968,1.542-8.452-0.224c-2.026-1.442-3.196-3.8-3.196-6.229
					c0-0.609,0.073-1.224,0.226-1.829c0.765-3.01,3.353-5.288,6.438-5.666c0.915-0.111,1.806-0.058,2.729,0.181
					c0.793,0.193,1.56,0.514,2.267,0.967c0.734,0.472,1.347,1.094,1.94,1.838c0.012,0.014,0.024,0.026,0.036,0.04
					c0.412,0.511,0.336,1.238-0.117,1.585c-0.382,0.293-1.023,0.411-1.527-0.235c-0.108-0.154-0.229-0.313-0.363-0.472
					c-0.401-0.443-0.899-0.873-1.495-1.206c-0.759-0.405-1.623-0.637-2.543-0.642c-3.009,0.034-4.619,2.134-5.191,3.633
					c-0.1,0.28-0.177,0.57-0.231,0.869c-0.007,0.056-0.012,0.11-0.014,0.16c0.622,0,10.797,0.002,10.797,0.002
					C41.254,812.274,42.05,813.319,41.83,814.513"/>
			</g>
		</g>
	</g>
</g>
<g>
</g>
<g>
</g>
<g>
</g>
<g>
</g>
<g>
</g>
<g>
</g>
</svg>
